<?xml version="1.0" encoding="utf-8"?>
<svg xmlns="http://www.w3.org/2000/svg" xmlns:xlink="http://www.w3.org/1999/xlink" width="700" height="500" viewBox="0 0 2800 2000">
<defs>
  <clipPath id="clip920">
    <rect x="0" y="0" width="2800" height="2000"/>
  </clipPath>
</defs>
<path clip-path="url(#clip920)" d="M0 2000 L2800 2000 L2800 0 L0 0  Z" fill="#ffffff" fill-rule="evenodd" fill-opacity="1"/>
<defs>
  <clipPath id="clip921">
    <rect x="560" y="0" width="1961" height="1961"/>
  </clipPath>
</defs>
<path clip-path="url(#clip920)" d="M225.177 1813.32 L2752.76 1813.32 L2752.76 127.792 L225.177 127.792  Z" fill="#ffffff" fill-rule="evenodd" fill-opacity="1"/>
<defs>
  <clipPath id="clip922">
    <rect x="225" y="127" width="2529" height="1687"/>
  </clipPath>
</defs>
<polyline clip-path="url(#clip922)" style="stroke:#000000; stroke-linecap:round; stroke-linejoin:round; stroke-width:2; stroke-opacity:0.1; fill:none" points="296.712,1813.32 296.712,127.792 "/>
<polyline clip-path="url(#clip922)" style="stroke:#000000; stroke-linecap:round; stroke-linejoin:round; stroke-width:2; stroke-opacity:0.1; fill:none" points="694.131,1813.32 694.131,127.792 "/>
<polyline clip-path="url(#clip922)" style="stroke:#000000; stroke-linecap:round; stroke-linejoin:round; stroke-width:2; stroke-opacity:0.1; fill:none" points="1091.55,1813.32 1091.55,127.792 "/>
<polyline clip-path="url(#clip922)" style="stroke:#000000; stroke-linecap:round; stroke-linejoin:round; stroke-width:2; stroke-opacity:0.1; fill:none" points="1488.97,1813.32 1488.97,127.792 "/>
<polyline clip-path="url(#clip922)" style="stroke:#000000; stroke-linecap:round; stroke-linejoin:round; stroke-width:2; stroke-opacity:0.1; fill:none" points="1886.38,1813.32 1886.38,127.792 "/>
<polyline clip-path="url(#clip922)" style="stroke:#000000; stroke-linecap:round; stroke-linejoin:round; stroke-width:2; stroke-opacity:0.1; fill:none" points="2283.8,1813.32 2283.8,127.792 "/>
<polyline clip-path="url(#clip922)" style="stroke:#000000; stroke-linecap:round; stroke-linejoin:round; stroke-width:2; stroke-opacity:0.1; fill:none" points="2681.22,1813.32 2681.22,127.792 "/>
<polyline clip-path="url(#clip922)" style="stroke:#000000; stroke-linecap:round; stroke-linejoin:round; stroke-width:2; stroke-opacity:0.1; fill:none" points="225.177,1510.54 2752.76,1510.54 "/>
<polyline clip-path="url(#clip922)" style="stroke:#000000; stroke-linecap:round; stroke-linejoin:round; stroke-width:2; stroke-opacity:0.1; fill:none" points="225.177,1111.5 2752.76,1111.5 "/>
<polyline clip-path="url(#clip922)" style="stroke:#000000; stroke-linecap:round; stroke-linejoin:round; stroke-width:2; stroke-opacity:0.1; fill:none" points="225.177,712.464 2752.76,712.464 "/>
<polyline clip-path="url(#clip922)" style="stroke:#000000; stroke-linecap:round; stroke-linejoin:round; stroke-width:2; stroke-opacity:0.1; fill:none" points="225.177,313.425 2752.76,313.425 "/>
<polyline clip-path="url(#clip920)" style="stroke:#000000; stroke-linecap:round; stroke-linejoin:round; stroke-width:4; stroke-opacity:1; fill:none" points="225.177,1813.32 2752.76,1813.32 "/>
<polyline clip-path="url(#clip920)" style="stroke:#000000; stroke-linecap:round; stroke-linejoin:round; stroke-width:4; stroke-opacity:1; fill:none" points="296.712,1813.32 296.712,1794.42 "/>
<polyline clip-path="url(#clip920)" style="stroke:#000000; stroke-linecap:round; stroke-linejoin:round; stroke-width:4; stroke-opacity:1; fill:none" points="694.131,1813.32 694.131,1794.42 "/>
<polyline clip-path="url(#clip920)" style="stroke:#000000; stroke-linecap:round; stroke-linejoin:round; stroke-width:4; stroke-opacity:1; fill:none" points="1091.55,1813.32 1091.55,1794.42 "/>
<polyline clip-path="url(#clip920)" style="stroke:#000000; stroke-linecap:round; stroke-linejoin:round; stroke-width:4; stroke-opacity:1; fill:none" points="1488.97,1813.32 1488.97,1794.42 "/>
<polyline clip-path="url(#clip920)" style="stroke:#000000; stroke-linecap:round; stroke-linejoin:round; stroke-width:4; stroke-opacity:1; fill:none" points="1886.38,1813.32 1886.38,1794.42 "/>
<polyline clip-path="url(#clip920)" style="stroke:#000000; stroke-linecap:round; stroke-linejoin:round; stroke-width:4; stroke-opacity:1; fill:none" points="2283.8,1813.32 2283.8,1794.42 "/>
<polyline clip-path="url(#clip920)" style="stroke:#000000; stroke-linecap:round; stroke-linejoin:round; stroke-width:4; stroke-opacity:1; fill:none" points="2681.22,1813.32 2681.22,1794.42 "/>
<path clip-path="url(#clip920)" d="M260.324 1874.98 L276.643 1874.98 L276.643 1878.92 L254.699 1878.92 L254.699 1874.98 Q257.361 1872.23 261.944 1867.6 Q266.551 1862.94 267.731 1861.6 Q269.977 1859.08 270.856 1857.34 Q271.759 1855.58 271.759 1853.89 Q271.759 1851.14 269.814 1849.4 Q267.893 1847.67 264.791 1847.67 Q262.592 1847.67 260.139 1848.43 Q257.708 1849.19 254.93 1850.75 L254.93 1846.02 Q257.754 1844.89 260.208 1844.31 Q262.662 1843.73 264.699 1843.73 Q270.069 1843.73 273.264 1846.42 Q276.458 1849.1 276.458 1853.59 Q276.458 1855.72 275.648 1857.64 Q274.861 1859.54 272.754 1862.13 Q272.176 1862.81 269.074 1866.02 Q265.972 1869.22 260.324 1874.98 Z" fill="#000000" fill-rule="nonzero" fill-opacity="1" /><path clip-path="url(#clip920)" d="M286.504 1844.36 L304.861 1844.36 L304.861 1848.29 L290.787 1848.29 L290.787 1856.76 Q291.805 1856.42 292.824 1856.26 Q293.842 1856.07 294.861 1856.07 Q300.648 1856.07 304.027 1859.24 Q307.407 1862.41 307.407 1867.83 Q307.407 1873.41 303.935 1876.51 Q300.462 1879.59 294.143 1879.59 Q291.967 1879.59 289.699 1879.22 Q287.453 1878.85 285.046 1878.11 L285.046 1873.41 Q287.129 1874.54 289.351 1875.1 Q291.574 1875.65 294.05 1875.65 Q298.055 1875.65 300.393 1873.55 Q302.731 1871.44 302.731 1867.83 Q302.731 1864.22 300.393 1862.11 Q298.055 1860.01 294.05 1860.01 Q292.175 1860.01 290.3 1860.42 Q288.449 1860.84 286.504 1861.72 L286.504 1844.36 Z" fill="#000000" fill-rule="nonzero" fill-opacity="1" /><path clip-path="url(#clip920)" d="M327.198 1859.77 Q324.05 1859.77 322.198 1861.93 Q320.37 1864.08 320.37 1867.83 Q320.37 1871.56 322.198 1873.73 Q324.05 1875.88 327.198 1875.88 Q330.347 1875.88 332.175 1873.73 Q334.027 1871.56 334.027 1867.83 Q334.027 1864.08 332.175 1861.93 Q330.347 1859.77 327.198 1859.77 M336.481 1845.12 L336.481 1849.38 Q334.722 1848.55 332.916 1848.11 Q331.134 1847.67 329.374 1847.67 Q324.745 1847.67 322.291 1850.79 Q319.86 1853.92 319.513 1860.24 Q320.879 1858.22 322.939 1857.16 Q324.999 1856.07 327.476 1856.07 Q332.685 1856.07 335.694 1859.24 Q338.726 1862.39 338.726 1867.83 Q338.726 1873.15 335.578 1876.37 Q332.43 1879.59 327.198 1879.59 Q321.203 1879.59 318.032 1875 Q314.861 1870.4 314.861 1861.67 Q314.861 1853.48 318.749 1848.62 Q322.638 1843.73 329.189 1843.73 Q330.948 1843.73 332.731 1844.08 Q334.536 1844.43 336.481 1845.12 Z" fill="#000000" fill-rule="nonzero" fill-opacity="1" /><path clip-path="url(#clip920)" d="M654.547 1844.36 L672.904 1844.36 L672.904 1848.29 L658.83 1848.29 L658.83 1856.76 Q659.848 1856.42 660.867 1856.26 Q661.885 1856.07 662.904 1856.07 Q668.691 1856.07 672.07 1859.24 Q675.45 1862.41 675.45 1867.83 Q675.45 1873.41 671.978 1876.51 Q668.506 1879.59 662.186 1879.59 Q660.01 1879.59 657.742 1879.22 Q655.496 1878.85 653.089 1878.11 L653.089 1873.41 Q655.172 1874.54 657.395 1875.1 Q659.617 1875.65 662.094 1875.65 Q666.098 1875.65 668.436 1873.55 Q670.774 1871.44 670.774 1867.83 Q670.774 1864.22 668.436 1862.11 Q666.098 1860.01 662.094 1860.01 Q660.219 1860.01 658.344 1860.42 Q656.492 1860.84 654.547 1861.72 L654.547 1844.36 Z" fill="#000000" fill-rule="nonzero" fill-opacity="1" /><path clip-path="url(#clip920)" d="M685.473 1874.98 L693.112 1874.98 L693.112 1848.62 L684.802 1850.28 L684.802 1846.02 L693.066 1844.36 L697.742 1844.36 L697.742 1874.98 L705.38 1874.98 L705.38 1878.92 L685.473 1878.92 L685.473 1874.98 Z" fill="#000000" fill-rule="nonzero" fill-opacity="1" /><path clip-path="url(#clip920)" d="M718.853 1874.98 L735.172 1874.98 L735.172 1878.92 L713.228 1878.92 L713.228 1874.98 Q715.89 1872.23 720.473 1867.6 Q725.079 1862.94 726.26 1861.6 Q728.505 1859.08 729.385 1857.34 Q730.288 1855.58 730.288 1853.89 Q730.288 1851.14 728.343 1849.4 Q726.422 1847.67 723.32 1847.67 Q721.121 1847.67 718.667 1848.43 Q716.237 1849.19 713.459 1850.75 L713.459 1846.02 Q716.283 1844.89 718.737 1844.31 Q721.191 1843.73 723.228 1843.73 Q728.598 1843.73 731.792 1846.42 Q734.987 1849.1 734.987 1853.59 Q734.987 1855.72 734.177 1857.64 Q733.39 1859.54 731.283 1862.13 Q730.704 1862.81 727.603 1866.02 Q724.501 1869.22 718.853 1874.98 Z" fill="#000000" fill-rule="nonzero" fill-opacity="1" /><path clip-path="url(#clip920)" d="M1035.83 1874.98 L1043.47 1874.98 L1043.47 1848.62 L1035.16 1850.28 L1035.16 1846.02 L1043.42 1844.36 L1048.1 1844.36 L1048.1 1874.98 L1055.74 1874.98 L1055.74 1878.92 L1035.83 1878.92 L1035.83 1874.98 Z" fill="#000000" fill-rule="nonzero" fill-opacity="1" /><path clip-path="url(#clip920)" d="M1075.18 1847.44 Q1071.57 1847.44 1069.74 1851 Q1067.94 1854.54 1067.94 1861.67 Q1067.94 1868.78 1069.74 1872.34 Q1071.57 1875.88 1075.18 1875.88 Q1078.82 1875.88 1080.62 1872.34 Q1082.45 1868.78 1082.45 1861.67 Q1082.45 1854.54 1080.62 1851 Q1078.82 1847.44 1075.18 1847.44 M1075.18 1843.73 Q1080.99 1843.73 1084.05 1848.34 Q1087.13 1852.92 1087.13 1861.67 Q1087.13 1870.4 1084.05 1875 Q1080.99 1879.59 1075.18 1879.59 Q1069.37 1879.59 1066.29 1875 Q1063.24 1870.4 1063.24 1861.67 Q1063.24 1852.92 1066.29 1848.34 Q1069.37 1843.73 1075.18 1843.73 Z" fill="#000000" fill-rule="nonzero" fill-opacity="1" /><path clip-path="url(#clip920)" d="M1099.37 1874.98 L1115.69 1874.98 L1115.69 1878.92 L1093.75 1878.92 L1093.75 1874.98 Q1096.41 1872.23 1100.99 1867.6 Q1105.6 1862.94 1106.78 1861.6 Q1109.03 1859.08 1109.9 1857.34 Q1110.81 1855.58 1110.81 1853.89 Q1110.81 1851.14 1108.86 1849.4 Q1106.94 1847.67 1103.84 1847.67 Q1101.64 1847.67 1099.19 1848.43 Q1096.76 1849.19 1093.98 1850.75 L1093.98 1846.02 Q1096.8 1844.89 1099.26 1844.31 Q1101.71 1843.73 1103.75 1843.73 Q1109.12 1843.73 1112.31 1846.42 Q1115.51 1849.1 1115.51 1853.59 Q1115.51 1855.72 1114.7 1857.64 Q1113.91 1859.54 1111.8 1862.13 Q1111.22 1862.81 1108.12 1866.02 Q1105.02 1869.22 1099.37 1874.98 Z" fill="#000000" fill-rule="nonzero" fill-opacity="1" /><path clip-path="url(#clip920)" d="M1138.35 1848.43 L1126.55 1866.88 L1138.35 1866.88 L1138.35 1848.43 M1137.13 1844.36 L1143.01 1844.36 L1143.01 1866.88 L1147.94 1866.88 L1147.94 1870.77 L1143.01 1870.77 L1143.01 1878.92 L1138.35 1878.92 L1138.35 1870.77 L1122.75 1870.77 L1122.75 1866.26 L1137.13 1844.36 Z" fill="#000000" fill-rule="nonzero" fill-opacity="1" /><path clip-path="url(#clip920)" d="M1437.62 1874.98 L1453.94 1874.98 L1453.94 1878.92 L1432 1878.92 L1432 1874.98 Q1434.66 1872.23 1439.24 1867.6 Q1443.85 1862.94 1445.03 1861.6 Q1447.28 1859.08 1448.16 1857.34 Q1449.06 1855.58 1449.06 1853.89 Q1449.06 1851.14 1447.11 1849.4 Q1445.19 1847.67 1442.09 1847.67 Q1439.89 1847.67 1437.44 1848.43 Q1435.01 1849.19 1432.23 1850.75 L1432.23 1846.02 Q1435.05 1844.89 1437.51 1844.31 Q1439.96 1843.73 1442 1843.73 Q1447.37 1843.73 1450.56 1846.42 Q1453.76 1849.1 1453.76 1853.59 Q1453.76 1855.72 1452.95 1857.64 Q1452.16 1859.54 1450.05 1862.13 Q1449.48 1862.81 1446.37 1866.02 Q1443.27 1869.22 1437.62 1874.98 Z" fill="#000000" fill-rule="nonzero" fill-opacity="1" /><path clip-path="url(#clip920)" d="M1473.76 1847.44 Q1470.15 1847.44 1468.32 1851 Q1466.51 1854.54 1466.51 1861.67 Q1466.51 1868.78 1468.32 1872.34 Q1470.15 1875.88 1473.76 1875.88 Q1477.39 1875.88 1479.2 1872.34 Q1481.03 1868.78 1481.03 1861.67 Q1481.03 1854.54 1479.2 1851 Q1477.39 1847.44 1473.76 1847.44 M1473.76 1843.73 Q1479.57 1843.73 1482.62 1848.34 Q1485.7 1852.92 1485.7 1861.67 Q1485.7 1870.4 1482.62 1875 Q1479.57 1879.59 1473.76 1879.59 Q1467.95 1879.59 1464.87 1875 Q1461.81 1870.4 1461.81 1861.67 Q1461.81 1852.92 1464.87 1848.34 Q1467.95 1843.73 1473.76 1843.73 Z" fill="#000000" fill-rule="nonzero" fill-opacity="1" /><path clip-path="url(#clip920)" d="M1506.77 1848.43 L1494.96 1866.88 L1506.77 1866.88 L1506.77 1848.43 M1505.54 1844.36 L1511.42 1844.36 L1511.42 1866.88 L1516.35 1866.88 L1516.35 1870.77 L1511.42 1870.77 L1511.42 1878.92 L1506.77 1878.92 L1506.77 1870.77 L1491.17 1870.77 L1491.17 1866.26 L1505.54 1844.36 Z" fill="#000000" fill-rule="nonzero" fill-opacity="1" /><path clip-path="url(#clip920)" d="M1534.08 1862.51 Q1530.75 1862.51 1528.83 1864.29 Q1526.93 1866.07 1526.93 1869.19 Q1526.93 1872.32 1528.83 1874.1 Q1530.75 1875.88 1534.08 1875.88 Q1537.42 1875.88 1539.34 1874.1 Q1541.26 1872.3 1541.26 1869.19 Q1541.26 1866.07 1539.34 1864.29 Q1537.44 1862.51 1534.08 1862.51 M1529.41 1860.51 Q1526.4 1859.77 1524.71 1857.71 Q1523.04 1855.65 1523.04 1852.69 Q1523.04 1848.55 1525.98 1846.14 Q1528.94 1843.73 1534.08 1843.73 Q1539.24 1843.73 1542.18 1846.14 Q1545.12 1848.55 1545.12 1852.69 Q1545.12 1855.65 1543.43 1857.71 Q1541.77 1859.77 1538.78 1860.51 Q1542.16 1861.3 1544.04 1863.59 Q1545.93 1865.88 1545.93 1869.19 Q1545.93 1874.22 1542.86 1876.9 Q1539.8 1879.59 1534.08 1879.59 Q1528.36 1879.59 1525.29 1876.9 Q1522.23 1874.22 1522.23 1869.19 Q1522.23 1865.88 1524.13 1863.59 Q1526.03 1861.3 1529.41 1860.51 M1527.69 1853.13 Q1527.69 1855.82 1529.36 1857.32 Q1531.05 1858.82 1534.08 1858.82 Q1537.09 1858.82 1538.78 1857.32 Q1540.49 1855.82 1540.49 1853.13 Q1540.49 1850.44 1538.78 1848.94 Q1537.09 1847.44 1534.08 1847.44 Q1531.05 1847.44 1529.36 1848.94 Q1527.69 1850.44 1527.69 1853.13 Z" fill="#000000" fill-rule="nonzero" fill-opacity="1" /><path clip-path="url(#clip920)" d="M1844.31 1848.43 L1832.51 1866.88 L1844.31 1866.88 L1844.31 1848.43 M1843.09 1844.36 L1848.97 1844.36 L1848.97 1866.88 L1853.9 1866.88 L1853.9 1870.77 L1848.97 1870.77 L1848.97 1878.92 L1844.31 1878.92 L1844.31 1870.77 L1828.71 1870.77 L1828.71 1866.26 L1843.09 1844.36 Z" fill="#000000" fill-rule="nonzero" fill-opacity="1" /><path clip-path="url(#clip920)" d="M1871.63 1847.44 Q1868.02 1847.44 1866.19 1851 Q1864.38 1854.54 1864.38 1861.67 Q1864.38 1868.78 1866.19 1872.34 Q1868.02 1875.88 1871.63 1875.88 Q1875.26 1875.88 1877.07 1872.34 Q1878.9 1868.78 1878.9 1861.67 Q1878.9 1854.54 1877.07 1851 Q1875.26 1847.44 1871.63 1847.44 M1871.63 1843.73 Q1877.44 1843.73 1880.49 1848.34 Q1883.57 1852.92 1883.57 1861.67 Q1883.57 1870.4 1880.49 1875 Q1877.44 1879.59 1871.63 1879.59 Q1865.82 1879.59 1862.74 1875 Q1859.68 1870.4 1859.68 1861.67 Q1859.68 1852.92 1862.74 1848.34 Q1865.82 1843.73 1871.63 1843.73 Z" fill="#000000" fill-rule="nonzero" fill-opacity="1" /><path clip-path="url(#clip920)" d="M1891.93 1878.2 L1891.93 1873.94 Q1893.69 1874.77 1895.49 1875.21 Q1897.3 1875.65 1899.03 1875.65 Q1903.66 1875.65 1906.1 1872.55 Q1908.55 1869.43 1908.9 1863.08 Q1907.55 1865.07 1905.49 1866.14 Q1903.43 1867.2 1900.93 1867.2 Q1895.75 1867.2 1892.72 1864.08 Q1889.71 1860.93 1889.71 1855.49 Q1889.71 1850.17 1892.85 1846.95 Q1896 1843.73 1901.23 1843.73 Q1907.23 1843.73 1910.38 1848.34 Q1913.55 1852.92 1913.55 1861.67 Q1913.55 1869.84 1909.66 1874.73 Q1905.79 1879.59 1899.24 1879.59 Q1897.48 1879.59 1895.68 1879.24 Q1893.87 1878.89 1891.93 1878.2 M1901.23 1863.55 Q1904.38 1863.55 1906.21 1861.39 Q1908.06 1859.24 1908.06 1855.49 Q1908.06 1851.76 1906.21 1849.61 Q1904.38 1847.44 1901.23 1847.44 Q1898.09 1847.44 1896.23 1849.61 Q1894.41 1851.76 1894.41 1855.49 Q1894.41 1859.24 1896.23 1861.39 Q1898.09 1863.55 1901.23 1863.55 Z" fill="#000000" fill-rule="nonzero" fill-opacity="1" /><path clip-path="url(#clip920)" d="M1932.53 1859.77 Q1929.38 1859.77 1927.53 1861.93 Q1925.7 1864.08 1925.7 1867.83 Q1925.7 1871.56 1927.53 1873.73 Q1929.38 1875.88 1932.53 1875.88 Q1935.68 1875.88 1937.51 1873.73 Q1939.36 1871.56 1939.36 1867.83 Q1939.36 1864.08 1937.51 1861.93 Q1935.68 1859.77 1932.53 1859.77 M1941.81 1845.12 L1941.81 1849.38 Q1940.05 1848.55 1938.25 1848.11 Q1936.47 1847.67 1934.71 1847.67 Q1930.08 1847.67 1927.62 1850.79 Q1925.19 1853.92 1924.85 1860.24 Q1926.21 1858.22 1928.27 1857.16 Q1930.33 1856.07 1932.81 1856.07 Q1938.02 1856.07 1941.03 1859.24 Q1944.06 1862.39 1944.06 1867.83 Q1944.06 1873.15 1940.91 1876.37 Q1937.76 1879.59 1932.53 1879.59 Q1926.53 1879.59 1923.36 1875 Q1920.19 1870.4 1920.19 1861.67 Q1920.19 1853.48 1924.08 1848.62 Q1927.97 1843.73 1934.52 1843.73 Q1936.28 1843.73 1938.06 1844.08 Q1939.87 1844.43 1941.81 1845.12 Z" fill="#000000" fill-rule="nonzero" fill-opacity="1" /><path clip-path="url(#clip920)" d="M2239.31 1862.51 Q2235.98 1862.51 2234.06 1864.29 Q2232.16 1866.07 2232.16 1869.19 Q2232.16 1872.32 2234.06 1874.1 Q2235.98 1875.88 2239.31 1875.88 Q2242.65 1875.88 2244.57 1874.1 Q2246.49 1872.3 2246.49 1869.19 Q2246.49 1866.07 2244.57 1864.29 Q2242.67 1862.51 2239.31 1862.51 M2234.64 1860.51 Q2231.63 1859.77 2229.94 1857.71 Q2228.27 1855.65 2228.27 1852.69 Q2228.27 1848.55 2231.21 1846.14 Q2234.17 1843.73 2239.31 1843.73 Q2244.47 1843.73 2247.41 1846.14 Q2250.35 1848.55 2250.35 1852.69 Q2250.35 1855.65 2248.66 1857.71 Q2247 1859.77 2244.01 1860.51 Q2247.39 1861.3 2249.27 1863.59 Q2251.16 1865.88 2251.16 1869.19 Q2251.16 1874.22 2248.09 1876.9 Q2245.03 1879.59 2239.31 1879.59 Q2233.59 1879.59 2230.52 1876.9 Q2227.46 1874.22 2227.46 1869.19 Q2227.46 1865.88 2229.36 1863.59 Q2231.26 1861.3 2234.64 1860.51 M2232.92 1853.13 Q2232.92 1855.82 2234.59 1857.32 Q2236.28 1858.82 2239.31 1858.82 Q2242.32 1858.82 2244.01 1857.32 Q2245.72 1855.82 2245.72 1853.13 Q2245.72 1850.44 2244.01 1848.94 Q2242.32 1847.44 2239.31 1847.44 Q2236.28 1847.44 2234.59 1848.94 Q2232.92 1850.44 2232.92 1853.13 Z" fill="#000000" fill-rule="nonzero" fill-opacity="1" /><path clip-path="url(#clip920)" d="M2260.28 1874.98 L2267.92 1874.98 L2267.92 1848.62 L2259.61 1850.28 L2259.61 1846.02 L2267.88 1844.36 L2272.55 1844.36 L2272.55 1874.98 L2280.19 1874.98 L2280.19 1878.92 L2260.28 1878.92 L2260.28 1874.98 Z" fill="#000000" fill-rule="nonzero" fill-opacity="1" /><path clip-path="url(#clip920)" d="M2289.77 1878.2 L2289.77 1873.94 Q2291.53 1874.77 2293.34 1875.21 Q2295.15 1875.65 2296.88 1875.65 Q2301.51 1875.65 2303.94 1872.55 Q2306.4 1869.43 2306.74 1863.08 Q2305.4 1865.07 2303.34 1866.14 Q2301.28 1867.2 2298.78 1867.2 Q2293.59 1867.2 2290.56 1864.08 Q2287.55 1860.93 2287.55 1855.49 Q2287.55 1850.17 2290.7 1846.95 Q2293.85 1843.73 2299.08 1843.73 Q2305.08 1843.73 2308.22 1848.34 Q2311.4 1852.92 2311.4 1861.67 Q2311.4 1869.84 2307.51 1874.73 Q2303.64 1879.59 2297.09 1879.59 Q2295.33 1879.59 2293.52 1879.24 Q2291.72 1878.89 2289.77 1878.2 M2299.08 1863.55 Q2302.23 1863.55 2304.06 1861.39 Q2305.91 1859.24 2305.91 1855.49 Q2305.91 1851.76 2304.06 1849.61 Q2302.23 1847.44 2299.08 1847.44 Q2295.93 1847.44 2294.08 1849.61 Q2292.25 1851.76 2292.25 1855.49 Q2292.25 1859.24 2294.08 1861.39 Q2295.93 1863.55 2299.08 1863.55 Z" fill="#000000" fill-rule="nonzero" fill-opacity="1" /><path clip-path="url(#clip920)" d="M2323.83 1874.98 L2340.14 1874.98 L2340.14 1878.92 L2318.2 1878.92 L2318.2 1874.98 Q2320.86 1872.23 2325.45 1867.6 Q2330.05 1862.94 2331.23 1861.6 Q2333.48 1859.08 2334.36 1857.34 Q2335.26 1855.58 2335.26 1853.89 Q2335.26 1851.14 2333.32 1849.4 Q2331.39 1847.67 2328.29 1847.67 Q2326.09 1847.67 2323.64 1848.43 Q2321.21 1849.19 2318.43 1850.75 L2318.43 1846.02 Q2321.26 1844.89 2323.71 1844.31 Q2326.16 1843.73 2328.2 1843.73 Q2333.57 1843.73 2336.77 1846.42 Q2339.96 1849.1 2339.96 1853.59 Q2339.96 1855.72 2339.15 1857.64 Q2338.36 1859.54 2336.26 1862.13 Q2335.68 1862.81 2332.58 1866.02 Q2329.47 1869.22 2323.83 1874.98 Z" fill="#000000" fill-rule="nonzero" fill-opacity="1" /><path clip-path="url(#clip920)" d="M2610.42 1874.98 L2618.06 1874.98 L2618.06 1848.62 L2609.75 1850.28 L2609.75 1846.02 L2618.01 1844.36 L2622.69 1844.36 L2622.69 1874.98 L2630.33 1874.98 L2630.33 1878.92 L2610.42 1878.92 L2610.42 1874.98 Z" fill="#000000" fill-rule="nonzero" fill-opacity="1" /><path clip-path="url(#clip920)" d="M2650.35 1859.77 Q2647.2 1859.77 2645.35 1861.93 Q2643.52 1864.08 2643.52 1867.83 Q2643.52 1871.56 2645.35 1873.73 Q2647.2 1875.88 2650.35 1875.88 Q2653.5 1875.88 2655.33 1873.73 Q2657.18 1871.56 2657.18 1867.83 Q2657.18 1864.08 2655.33 1861.93 Q2653.5 1859.77 2650.35 1859.77 M2659.64 1845.12 L2659.64 1849.38 Q2657.88 1848.55 2656.07 1848.11 Q2654.29 1847.67 2652.53 1847.67 Q2647.9 1847.67 2645.45 1850.79 Q2643.01 1853.92 2642.67 1860.24 Q2644.03 1858.22 2646.09 1857.16 Q2648.15 1856.07 2650.63 1856.07 Q2655.84 1856.07 2658.85 1859.24 Q2661.88 1862.39 2661.88 1867.83 Q2661.88 1873.15 2658.73 1876.37 Q2655.58 1879.59 2650.35 1879.59 Q2644.36 1879.59 2641.19 1875 Q2638.01 1870.4 2638.01 1861.67 Q2638.01 1853.48 2641.9 1848.62 Q2645.79 1843.73 2652.34 1843.73 Q2654.1 1843.73 2655.89 1844.08 Q2657.69 1844.43 2659.64 1845.12 Z" fill="#000000" fill-rule="nonzero" fill-opacity="1" /><path clip-path="url(#clip920)" d="M2684.1 1860.28 Q2687.46 1861 2689.33 1863.27 Q2691.23 1865.54 2691.23 1868.87 Q2691.23 1873.99 2687.71 1876.79 Q2684.2 1879.59 2677.71 1879.59 Q2675.54 1879.59 2673.22 1879.15 Q2670.93 1878.73 2668.48 1877.88 L2668.48 1873.36 Q2670.42 1874.5 2672.74 1875.07 Q2675.05 1875.65 2677.57 1875.65 Q2681.97 1875.65 2684.26 1873.92 Q2686.58 1872.18 2686.58 1868.87 Q2686.58 1865.82 2684.43 1864.1 Q2682.3 1862.37 2678.48 1862.37 L2674.45 1862.37 L2674.45 1858.52 L2678.66 1858.52 Q2682.11 1858.52 2683.94 1857.16 Q2685.77 1855.77 2685.77 1853.18 Q2685.77 1850.51 2683.87 1849.1 Q2682 1847.67 2678.48 1847.67 Q2676.56 1847.67 2674.36 1848.08 Q2672.16 1848.5 2669.52 1849.38 L2669.52 1845.21 Q2672.18 1844.47 2674.5 1844.1 Q2676.83 1843.73 2678.89 1843.73 Q2684.22 1843.73 2687.32 1846.16 Q2690.42 1848.57 2690.42 1852.69 Q2690.42 1855.56 2688.78 1857.55 Q2687.13 1859.52 2684.1 1860.28 Z" fill="#000000" fill-rule="nonzero" fill-opacity="1" /><path clip-path="url(#clip920)" d="M2710.1 1862.51 Q2706.76 1862.51 2704.84 1864.29 Q2702.95 1866.07 2702.95 1869.19 Q2702.95 1872.32 2704.84 1874.1 Q2706.76 1875.88 2710.1 1875.88 Q2713.43 1875.88 2715.35 1874.1 Q2717.27 1872.3 2717.27 1869.19 Q2717.27 1866.07 2715.35 1864.29 Q2713.45 1862.51 2710.1 1862.51 M2705.42 1860.51 Q2702.41 1859.77 2700.72 1857.71 Q2699.06 1855.65 2699.06 1852.69 Q2699.06 1848.55 2702 1846.14 Q2704.96 1843.73 2710.1 1843.73 Q2715.26 1843.73 2718.2 1846.14 Q2721.14 1848.55 2721.14 1852.69 Q2721.14 1855.65 2719.45 1857.71 Q2717.78 1859.77 2714.8 1860.51 Q2718.18 1861.3 2720.05 1863.59 Q2721.95 1865.88 2721.95 1869.19 Q2721.95 1874.22 2718.87 1876.9 Q2715.82 1879.59 2710.1 1879.59 Q2704.38 1879.59 2701.3 1876.9 Q2698.25 1874.22 2698.25 1869.19 Q2698.25 1865.88 2700.14 1863.59 Q2702.04 1861.3 2705.42 1860.51 M2703.71 1853.13 Q2703.71 1855.82 2705.38 1857.32 Q2707.07 1858.82 2710.1 1858.82 Q2713.11 1858.82 2714.8 1857.32 Q2716.51 1855.82 2716.51 1853.13 Q2716.51 1850.44 2714.8 1848.94 Q2713.11 1847.44 2710.1 1847.44 Q2707.07 1847.44 2705.38 1848.94 Q2703.71 1850.44 2703.71 1853.13 Z" fill="#000000" fill-rule="nonzero" fill-opacity="1" /><path clip-path="url(#clip920)" d="M2743.11 1848.43 L2731.3 1866.88 L2743.11 1866.88 L2743.11 1848.43 M2741.88 1844.36 L2747.76 1844.36 L2747.76 1866.88 L2752.69 1866.88 L2752.69 1870.77 L2747.76 1870.77 L2747.76 1878.92 L2743.11 1878.92 L2743.11 1870.77 L2727.51 1870.77 L2727.51 1866.26 L2741.88 1844.36 Z" fill="#000000" fill-rule="nonzero" fill-opacity="1" /><path clip-path="url(#clip920)" d="M1359.41 1935.5 L1350.15 1935.5 L1347.47 1946.13 L1356.8 1946.13 L1359.41 1935.5 M1354.63 1917.39 L1351.32 1930.6 L1360.62 1930.6 L1363.96 1917.39 L1369.05 1917.39 L1365.77 1930.6 L1375.7 1930.6 L1375.7 1935.5 L1364.53 1935.5 L1361.92 1946.13 L1372.04 1946.13 L1372.04 1951 L1360.68 1951 L1357.37 1964.18 L1352.28 1964.18 L1355.56 1951 L1346.23 1951 L1342.95 1964.18 L1337.83 1964.18 L1341.14 1951 L1331.11 1951 L1331.11 1946.13 L1342.32 1946.13 L1344.99 1935.5 L1334.74 1935.5 L1334.74 1930.6 L1346.23 1930.6 L1349.48 1917.39 L1354.63 1917.39 Z" fill="#000000" fill-rule="nonzero" fill-opacity="1" /><path clip-path="url(#clip920)" d="M1404.89 1914.66 L1404.89 1919.53 L1399.29 1919.53 Q1396.14 1919.53 1394.9 1920.8 Q1393.69 1922.07 1393.69 1925.38 L1393.69 1928.53 L1403.33 1928.53 L1403.33 1933.08 L1393.69 1933.08 L1393.69 1964.18 L1387.8 1964.18 L1387.8 1933.08 L1382.2 1933.08 L1382.2 1928.53 L1387.8 1928.53 L1387.8 1926.05 Q1387.8 1920.1 1390.57 1917.39 Q1393.34 1914.66 1399.35 1914.66 L1404.89 1914.66 Z" fill="#000000" fill-rule="nonzero" fill-opacity="1" /><path clip-path="url(#clip920)" d="M1440.28 1944.89 L1440.28 1947.76 L1413.36 1947.76 Q1413.74 1953.8 1416.99 1956.99 Q1420.26 1960.14 1426.09 1960.14 Q1429.46 1960.14 1432.61 1959.31 Q1435.8 1958.48 1438.92 1956.83 L1438.92 1962.37 Q1435.77 1963.7 1432.46 1964.4 Q1429.14 1965.1 1425.74 1965.1 Q1417.21 1965.1 1412.21 1960.14 Q1407.25 1955.17 1407.25 1946.71 Q1407.25 1937.95 1411.96 1932.83 Q1416.7 1927.67 1424.72 1927.67 Q1431.91 1927.67 1436.08 1932.32 Q1440.28 1936.94 1440.28 1944.89 M1434.43 1943.17 Q1434.36 1938.37 1431.72 1935.5 Q1429.11 1932.64 1424.78 1932.64 Q1419.88 1932.64 1416.92 1935.41 Q1413.99 1938.18 1413.55 1943.21 L1434.43 1943.17 Z" fill="#000000" fill-rule="nonzero" fill-opacity="1" /><path clip-path="url(#clip920)" d="M1466.1 1946.26 Q1459 1946.26 1456.26 1947.88 Q1453.53 1949.51 1453.53 1953.42 Q1453.53 1956.54 1455.56 1958.39 Q1457.63 1960.2 1461.16 1960.2 Q1466.03 1960.2 1468.96 1956.76 Q1471.92 1953.3 1471.92 1947.57 L1471.92 1946.26 L1466.1 1946.26 M1477.78 1943.84 L1477.78 1964.18 L1471.92 1964.18 L1471.92 1958.77 Q1469.92 1962.02 1466.93 1963.58 Q1463.93 1965.1 1459.6 1965.1 Q1454.13 1965.1 1450.88 1962.05 Q1447.67 1958.96 1447.67 1953.8 Q1447.67 1947.79 1451.68 1944.73 Q1455.72 1941.68 1463.71 1941.68 L1471.92 1941.68 L1471.92 1941.11 Q1471.92 1937.06 1469.25 1934.87 Q1466.61 1932.64 1461.8 1932.64 Q1458.75 1932.64 1455.85 1933.37 Q1452.95 1934.1 1450.28 1935.57 L1450.28 1930.16 Q1453.49 1928.91 1456.52 1928.31 Q1459.54 1927.67 1462.41 1927.67 Q1470.14 1927.67 1473.96 1931.68 Q1477.78 1935.69 1477.78 1943.84 Z" fill="#000000" fill-rule="nonzero" fill-opacity="1" /><path clip-path="url(#clip920)" d="M1495.63 1918.41 L1495.63 1928.53 L1507.7 1928.53 L1507.7 1933.08 L1495.63 1933.08 L1495.63 1952.44 Q1495.63 1956.8 1496.81 1958.04 Q1498.02 1959.28 1501.68 1959.28 L1507.7 1959.28 L1507.7 1964.18 L1501.68 1964.18 Q1494.9 1964.18 1492.32 1961.67 Q1489.75 1959.12 1489.75 1952.44 L1489.75 1933.08 L1485.45 1933.08 L1485.45 1928.53 L1489.75 1928.53 L1489.75 1918.41 L1495.63 1918.41 Z" fill="#000000" fill-rule="nonzero" fill-opacity="1" /><path clip-path="url(#clip920)" d="M1514.8 1950.11 L1514.8 1928.53 L1520.65 1928.53 L1520.65 1949.89 Q1520.65 1954.95 1522.63 1957.5 Q1524.6 1960.01 1528.55 1960.01 Q1533.29 1960.01 1536.03 1956.99 Q1538.79 1953.96 1538.79 1948.74 L1538.79 1928.53 L1544.65 1928.53 L1544.65 1964.18 L1538.79 1964.18 L1538.79 1958.71 Q1536.66 1961.95 1533.83 1963.54 Q1531.03 1965.1 1527.3 1965.1 Q1521.16 1965.1 1517.98 1961.28 Q1514.8 1957.47 1514.8 1950.11 M1529.53 1927.67 L1529.53 1927.67 Z" fill="#000000" fill-rule="nonzero" fill-opacity="1" /><path clip-path="url(#clip920)" d="M1577.37 1934.01 Q1576.38 1933.43 1575.21 1933.18 Q1574.06 1932.89 1572.66 1932.89 Q1567.69 1932.89 1565.02 1936.14 Q1562.38 1939.35 1562.38 1945.4 L1562.38 1964.18 L1556.49 1964.18 L1556.49 1928.53 L1562.38 1928.53 L1562.38 1934.07 Q1564.23 1930.82 1567.19 1929.27 Q1570.15 1927.67 1574.38 1927.67 Q1574.98 1927.67 1575.72 1927.77 Q1576.45 1927.83 1577.34 1927.99 L1577.37 1934.01 Z" fill="#000000" fill-rule="nonzero" fill-opacity="1" /><path clip-path="url(#clip920)" d="M1612.57 1944.89 L1612.57 1947.76 L1585.65 1947.76 Q1586.03 1953.8 1589.27 1956.99 Q1592.55 1960.14 1598.38 1960.14 Q1601.75 1960.14 1604.9 1959.31 Q1608.08 1958.48 1611.2 1956.83 L1611.2 1962.37 Q1608.05 1963.7 1604.74 1964.4 Q1601.43 1965.1 1598.03 1965.1 Q1589.5 1965.1 1584.5 1960.14 Q1579.53 1955.17 1579.53 1946.71 Q1579.53 1937.95 1584.25 1932.83 Q1588.99 1927.67 1597.01 1927.67 Q1604.2 1927.67 1608.37 1932.32 Q1612.57 1936.94 1612.57 1944.89 M1606.72 1943.17 Q1606.65 1938.37 1604.01 1935.5 Q1601.4 1932.64 1597.07 1932.64 Q1592.17 1932.64 1589.21 1935.41 Q1586.28 1938.18 1585.84 1943.21 L1606.72 1943.17 Z" fill="#000000" fill-rule="nonzero" fill-opacity="1" /><path clip-path="url(#clip920)" d="M1644.91 1929.58 L1644.91 1935.12 Q1642.43 1933.85 1639.75 1933.21 Q1637.08 1932.58 1634.22 1932.58 Q1629.86 1932.58 1627.66 1933.91 Q1625.5 1935.25 1625.5 1937.92 Q1625.5 1939.96 1627.05 1941.14 Q1628.61 1942.28 1633.32 1943.33 L1635.33 1943.78 Q1641.57 1945.12 1644.18 1947.57 Q1646.82 1949.99 1646.82 1954.35 Q1646.82 1959.31 1642.87 1962.21 Q1638.96 1965.1 1632.08 1965.1 Q1629.22 1965.1 1626.1 1964.53 Q1623.01 1963.99 1619.57 1962.88 L1619.57 1956.83 Q1622.82 1958.52 1625.97 1959.37 Q1629.12 1960.2 1632.21 1960.2 Q1636.35 1960.2 1638.58 1958.8 Q1640.8 1957.37 1640.8 1954.79 Q1640.8 1952.4 1639.18 1951.13 Q1637.59 1949.86 1632.15 1948.68 L1630.11 1948.2 Q1624.67 1947.06 1622.25 1944.7 Q1619.83 1942.31 1619.83 1938.18 Q1619.83 1933.15 1623.39 1930.41 Q1626.96 1927.67 1633.52 1927.67 Q1636.76 1927.67 1639.63 1928.15 Q1642.49 1928.63 1644.91 1929.58 Z" fill="#000000" fill-rule="nonzero" fill-opacity="1" /><polyline clip-path="url(#clip920)" style="stroke:#000000; stroke-linecap:round; stroke-linejoin:round; stroke-width:4; stroke-opacity:1; fill:none" points="225.177,1813.32 225.177,127.792 "/>
<polyline clip-path="url(#clip920)" style="stroke:#000000; stroke-linecap:round; stroke-linejoin:round; stroke-width:4; stroke-opacity:1; fill:none" points="225.177,1510.54 244.075,1510.54 "/>
<polyline clip-path="url(#clip920)" style="stroke:#000000; stroke-linecap:round; stroke-linejoin:round; stroke-width:4; stroke-opacity:1; fill:none" points="225.177,1111.5 244.075,1111.5 "/>
<polyline clip-path="url(#clip920)" style="stroke:#000000; stroke-linecap:round; stroke-linejoin:round; stroke-width:4; stroke-opacity:1; fill:none" points="225.177,712.464 244.075,712.464 "/>
<polyline clip-path="url(#clip920)" style="stroke:#000000; stroke-linecap:round; stroke-linejoin:round; stroke-width:4; stroke-opacity:1; fill:none" points="225.177,313.425 244.075,313.425 "/>
<path clip-path="url(#clip920)" d="M116.812 1523.89 L124.451 1523.89 L124.451 1497.52 L116.141 1499.19 L116.141 1494.93 L124.404 1493.26 L129.08 1493.26 L129.08 1523.89 L136.719 1523.89 L136.719 1527.82 L116.812 1527.82 L116.812 1523.89 Z" fill="#000000" fill-rule="nonzero" fill-opacity="1" /><path clip-path="url(#clip920)" d="M146.164 1521.94 L151.048 1521.94 L151.048 1527.82 L146.164 1527.82 L146.164 1521.94 Z" fill="#000000" fill-rule="nonzero" fill-opacity="1" /><path clip-path="url(#clip920)" d="M171.233 1496.34 Q167.622 1496.34 165.793 1499.9 Q163.988 1503.45 163.988 1510.58 Q163.988 1517.68 165.793 1521.25 Q167.622 1524.79 171.233 1524.79 Q174.867 1524.79 176.673 1521.25 Q178.501 1517.68 178.501 1510.58 Q178.501 1503.45 176.673 1499.9 Q174.867 1496.34 171.233 1496.34 M171.233 1492.64 Q177.043 1492.64 180.099 1497.24 Q183.177 1501.83 183.177 1510.58 Q183.177 1519.3 180.099 1523.91 Q177.043 1528.49 171.233 1528.49 Q165.423 1528.49 162.344 1523.91 Q159.288 1519.3 159.288 1510.58 Q159.288 1501.83 162.344 1497.24 Q165.423 1492.64 171.233 1492.64 Z" fill="#000000" fill-rule="nonzero" fill-opacity="1" /><path clip-path="url(#clip920)" d="M118.409 1124.85 L126.048 1124.85 L126.048 1098.48 L117.738 1100.15 L117.738 1095.89 L126.002 1094.22 L130.678 1094.22 L130.678 1124.85 L138.316 1124.85 L138.316 1128.78 L118.409 1128.78 L118.409 1124.85 Z" fill="#000000" fill-rule="nonzero" fill-opacity="1" /><path clip-path="url(#clip920)" d="M147.761 1122.9 L152.645 1122.9 L152.645 1128.78 L147.761 1128.78 L147.761 1122.9 Z" fill="#000000" fill-rule="nonzero" fill-opacity="1" /><path clip-path="url(#clip920)" d="M166.858 1124.85 L183.177 1124.85 L183.177 1128.78 L161.233 1128.78 L161.233 1124.85 Q163.895 1122.09 168.478 1117.46 Q173.085 1112.81 174.265 1111.47 Q176.511 1108.94 177.39 1107.21 Q178.293 1105.45 178.293 1103.76 Q178.293 1101 176.349 1099.27 Q174.427 1097.53 171.325 1097.53 Q169.126 1097.53 166.673 1098.3 Q164.242 1099.06 161.464 1100.61 L161.464 1095.89 Q164.288 1094.75 166.742 1094.18 Q169.196 1093.6 171.233 1093.6 Q176.603 1093.6 179.798 1096.28 Q182.992 1098.97 182.992 1103.46 Q182.992 1105.59 182.182 1107.51 Q181.395 1109.41 179.288 1112 Q178.71 1112.67 175.608 1115.89 Q172.506 1119.08 166.858 1124.85 Z" fill="#000000" fill-rule="nonzero" fill-opacity="1" /><path clip-path="url(#clip920)" d="M116.326 725.808 L123.965 725.808 L123.965 699.443 L115.654 701.109 L115.654 696.85 L123.918 695.184 L128.594 695.184 L128.594 725.808 L136.233 725.808 L136.233 729.744 L116.326 729.744 L116.326 725.808 Z" fill="#000000" fill-rule="nonzero" fill-opacity="1" /><path clip-path="url(#clip920)" d="M145.677 723.864 L150.562 723.864 L150.562 729.744 L145.677 729.744 L145.677 723.864 Z" fill="#000000" fill-rule="nonzero" fill-opacity="1" /><path clip-path="url(#clip920)" d="M173.594 699.258 L161.788 717.707 L173.594 717.707 L173.594 699.258 M172.367 695.184 L178.247 695.184 L178.247 717.707 L183.177 717.707 L183.177 721.595 L178.247 721.595 L178.247 729.744 L173.594 729.744 L173.594 721.595 L157.992 721.595 L157.992 717.082 L172.367 695.184 Z" fill="#000000" fill-rule="nonzero" fill-opacity="1" /><path clip-path="url(#clip920)" d="M116.65 326.77 L124.289 326.77 L124.289 300.404 L115.979 302.071 L115.979 297.812 L124.242 296.145 L128.918 296.145 L128.918 326.77 L136.557 326.77 L136.557 330.705 L116.65 330.705 L116.65 326.77 Z" fill="#000000" fill-rule="nonzero" fill-opacity="1" /><path clip-path="url(#clip920)" d="M146.002 324.825 L150.886 324.825 L150.886 330.705 L146.002 330.705 L146.002 324.825 Z" fill="#000000" fill-rule="nonzero" fill-opacity="1" /><path clip-path="url(#clip920)" d="M171.65 311.562 Q168.501 311.562 166.65 313.714 Q164.821 315.867 164.821 319.617 Q164.821 323.344 166.65 325.52 Q168.501 327.673 171.65 327.673 Q174.798 327.673 176.626 325.52 Q178.478 323.344 178.478 319.617 Q178.478 315.867 176.626 313.714 Q174.798 311.562 171.65 311.562 M180.932 296.909 L180.932 301.168 Q179.173 300.335 177.367 299.895 Q175.585 299.455 173.825 299.455 Q169.196 299.455 166.742 302.58 Q164.312 305.705 163.964 312.025 Q165.33 310.011 167.39 308.946 Q169.45 307.858 171.927 307.858 Q177.136 307.858 180.145 311.029 Q183.177 314.177 183.177 319.617 Q183.177 324.941 180.029 328.159 Q176.881 331.376 171.65 331.376 Q165.654 331.376 162.483 326.793 Q159.312 322.187 159.312 313.46 Q159.312 305.265 163.2 300.404 Q167.089 295.52 173.64 295.52 Q175.399 295.52 177.182 295.867 Q178.987 296.214 180.932 296.909 Z" fill="#000000" fill-rule="nonzero" fill-opacity="1" /><path clip-path="url(#clip920)" d="M9.87325 1150.67 L9.87325 1144.82 L59.3984 1144.82 L59.3984 1150.67 L9.87325 1150.67 Z" fill="#000000" fill-rule="nonzero" fill-opacity="1" /><path clip-path="url(#clip920)" d="M27.8564 1118.75 Q27.8564 1123.46 31.5485 1126.2 Q35.2088 1128.93 41.6063 1128.93 Q48.0038 1128.93 51.6959 1126.23 Q55.3562 1123.49 55.3562 1118.75 Q55.3562 1114.07 51.6641 1111.33 Q47.972 1108.59 41.6063 1108.59 Q35.2724 1108.59 31.5803 1111.33 Q27.8564 1114.07 27.8564 1118.75 M22.8911 1118.75 Q22.8911 1111.11 27.8564 1106.75 Q32.8216 1102.39 41.6063 1102.39 Q50.3591 1102.39 55.3562 1106.75 Q60.3215 1111.11 60.3215 1118.75 Q60.3215 1126.42 55.3562 1130.78 Q50.3591 1135.11 41.6063 1135.11 Q32.8216 1135.11 27.8564 1130.78 Q22.8911 1126.42 22.8911 1118.75 Z" fill="#000000" fill-rule="nonzero" fill-opacity="1" /><path clip-path="url(#clip920)" d="M41.1607 1069.22 Q34.795 1069.22 31.2938 1071.86 Q27.7927 1074.47 27.7927 1079.22 Q27.7927 1083.93 31.2938 1086.57 Q34.795 1089.18 41.1607 1089.18 Q47.4946 1089.18 50.9957 1086.57 Q54.4968 1083.93 54.4968 1079.22 Q54.4968 1074.47 50.9957 1071.86 Q47.4946 1069.22 41.1607 1069.22 M54.9743 1063.37 Q64.0772 1063.37 68.5014 1067.41 Q72.9574 1071.45 72.9574 1079.79 Q72.9574 1082.88 72.48 1085.61 Q72.0344 1088.35 71.0795 1090.93 L65.3822 1090.93 Q66.7827 1088.35 67.4511 1085.84 Q68.1195 1083.32 68.1195 1080.71 Q68.1195 1074.95 65.0958 1072.09 Q62.1039 1069.22 56.0246 1069.22 L53.1282 1069.22 Q56.2792 1071.04 57.8388 1073.87 Q59.3984 1076.7 59.3984 1080.65 Q59.3984 1087.21 54.4014 1091.22 Q49.4043 1095.23 41.1607 1095.23 Q32.8853 1095.23 27.8882 1091.22 Q22.8911 1087.21 22.8911 1080.65 Q22.8911 1076.7 24.4507 1073.87 Q26.0103 1071.04 29.1613 1069.22 L23.7505 1069.22 L23.7505 1063.37 L54.9743 1063.37 Z" fill="#000000" fill-rule="nonzero" fill-opacity="1" /><path clip-path="url(#clip920)" d="M53.9876 1049.36 L53.9876 1038.86 L17.7349 1038.86 L20.0265 1050.29 L14.1701 1050.29 L11.8784 1038.92 L11.8784 1032.49 L53.9876 1032.49 L53.9876 1021.99 L59.3984 1021.99 L59.3984 1049.36 L53.9876 1049.36 Z" fill="#000000" fill-rule="nonzero" fill-opacity="1" /><path clip-path="url(#clip920)" d="M16.1116 995.253 Q16.1116 1000.22 21.0132 1002.73 Q25.883 1005.22 35.6862 1005.22 Q45.4575 1005.22 50.3591 1002.73 Q55.2289 1000.22 55.2289 995.253 Q55.2289 990.256 50.3591 987.774 Q45.4575 985.259 35.6862 985.259 Q25.883 985.259 21.0132 987.774 Q16.1116 990.256 16.1116 995.253 M11.0191 995.253 Q11.0191 987.265 17.353 983.063 Q23.655 978.83 35.6862 978.83 Q47.6855 978.83 54.0194 983.063 Q60.3215 987.265 60.3215 995.253 Q60.3215 1003.24 54.0194 1007.48 Q47.6855 1011.68 35.6862 1011.68 Q23.655 1011.68 17.353 1007.48 Q11.0191 1003.24 11.0191 995.253 Z" fill="#000000" fill-rule="nonzero" fill-opacity="1" /><path clip-path="url(#clip920)" d="M9.9369 954.29 Q17.2575 958.555 24.4189 960.624 Q31.5803 962.693 38.9327 962.693 Q46.2851 962.693 53.5102 960.624 Q60.7034 958.523 67.9921 954.29 L67.9921 959.383 Q60.5124 964.157 53.2874 966.544 Q46.0623 968.899 38.9327 968.899 Q31.8349 968.899 24.6417 966.544 Q17.4484 964.189 9.9369 959.383 L9.9369 954.29 Z" fill="#000000" fill-rule="nonzero" fill-opacity="1" /><path clip-path="url(#clip920)" d="M11.8784 942.673 L11.8784 933.092 L44.2162 920.966 L11.8784 908.775 L11.8784 899.195 L59.3984 899.195 L59.3984 905.465 L17.6712 905.465 L50.2637 917.719 L50.2637 924.18 L17.6712 936.434 L59.3984 936.434 L59.3984 942.673 L11.8784 942.673 Z" fill="#000000" fill-rule="nonzero" fill-opacity="1" /><path clip-path="url(#clip920)" d="M13.438 857.945 L19.7083 857.945 Q17.9577 861.605 17.0983 864.852 Q16.239 868.099 16.239 871.122 Q16.239 876.374 18.276 879.238 Q20.313 882.071 24.0688 882.071 Q27.2198 882.071 28.8431 880.193 Q30.4345 878.284 31.4212 873 L32.2169 869.117 Q33.5855 861.924 37.0548 858.518 Q40.4923 855.081 46.2851 855.081 Q53.1919 855.081 56.7567 859.728 Q60.3215 864.343 60.3215 873.287 Q60.3215 876.66 59.5576 880.48 Q58.7937 884.267 57.2978 888.341 L50.6774 888.341 Q52.8736 884.427 53.9876 880.671 Q55.1016 876.915 55.1016 873.287 Q55.1016 867.78 52.9373 864.788 Q50.7729 861.796 46.7625 861.796 Q43.2614 861.796 41.288 863.961 Q39.3146 866.093 38.328 870.995 L37.5641 874.91 Q36.1318 882.103 33.0762 885.318 Q30.0207 888.532 24.578 888.532 Q18.276 888.532 14.6475 884.108 Q11.0191 879.652 11.0191 871.854 Q11.0191 868.512 11.6238 865.043 Q12.2286 861.574 13.438 857.945 Z" fill="#000000" fill-rule="nonzero" fill-opacity="1" /><path clip-path="url(#clip920)" d="M11.8784 845.055 L11.8784 815.009 L17.2893 815.009 L17.2893 838.625 L31.3575 838.625 L31.3575 815.995 L36.7684 815.995 L36.7684 838.625 L53.9876 838.625 L53.9876 814.436 L59.3984 814.436 L59.3984 845.055 L11.8784 845.055 Z" fill="#000000" fill-rule="nonzero" fill-opacity="1" /><path clip-path="url(#clip920)" d="M9.9369 805.046 L9.9369 799.954 Q17.4484 795.179 24.6417 792.824 Q31.8349 790.437 38.9327 790.437 Q46.0623 790.437 53.2874 792.824 Q60.5124 795.179 67.9921 799.954 L67.9921 805.046 Q60.7034 800.813 53.5102 798.744 Q46.2851 796.643 38.9327 796.643 Q31.5803 796.643 24.4189 798.744 Q17.2575 800.813 9.9369 805.046 Z" fill="#000000" fill-rule="nonzero" fill-opacity="1" /><path clip-path="url(#clip920)" d="M529.145 12.096 L541.339 12.096 L556.772 53.2532 L572.287 12.096 L584.481 12.096 L584.481 72.576 L576.5 72.576 L576.5 19.4686 L560.904 60.9499 L552.681 60.9499 L537.085 19.4686 L537.085 72.576 L529.145 72.576 L529.145 12.096 Z" fill="#000000" fill-rule="nonzero" fill-opacity="1" /><path clip-path="url(#clip920)" d="M636.98 14.0809 L636.98 22.0612 Q632.322 19.8332 628.19 18.7395 Q624.058 17.6457 620.21 17.6457 Q613.526 17.6457 609.88 20.2383 Q606.275 22.8309 606.275 27.611 Q606.275 31.6214 608.665 33.6873 Q611.095 35.7128 617.82 36.9686 L622.762 37.9813 Q631.917 39.7232 636.251 44.1387 Q640.626 48.5136 640.626 55.8863 Q640.626 64.6767 634.712 69.2137 Q628.838 73.7508 617.455 73.7508 Q613.161 73.7508 608.3 72.7785 Q603.479 71.8063 598.294 69.9024 L598.294 61.4765 Q603.277 64.2716 608.057 65.6895 Q612.837 67.1073 617.455 67.1073 Q624.463 67.1073 628.271 64.3527 Q632.079 61.598 632.079 56.4939 Q632.079 52.0379 629.324 49.5264 Q626.61 47.0148 620.372 45.759 L615.389 44.7868 Q606.234 42.9639 602.143 39.075 Q598.051 35.1862 598.051 28.2591 Q598.051 20.2383 603.682 15.6203 Q609.353 11.0023 619.278 11.0023 Q623.531 11.0023 627.947 11.7719 Q632.362 12.5416 636.98 14.0809 Z" fill="#000000" fill-rule="nonzero" fill-opacity="1" /><path clip-path="url(#clip920)" d="M653.387 12.096 L691.627 12.096 L691.627 18.9825 L661.569 18.9825 L661.569 36.8875 L690.371 36.8875 L690.371 43.7741 L661.569 43.7741 L661.569 65.6895 L692.356 65.6895 L692.356 72.576 L653.387 72.576 L653.387 12.096 Z" fill="#000000" fill-rule="nonzero" fill-opacity="1" /><path clip-path="url(#clip920)" d="M749.433 32.4315 Q743.438 32.4315 739.954 37.1306 Q736.471 41.7891 736.471 49.9314 Q736.471 58.0738 739.914 62.7728 Q743.398 67.4314 749.433 67.4314 Q755.388 67.4314 758.872 62.7323 Q762.356 58.0333 762.356 49.9314 Q762.356 41.8701 758.872 37.1711 Q755.388 32.4315 749.433 32.4315 M749.433 26.1121 Q759.156 26.1121 764.705 32.4315 Q770.255 38.7509 770.255 49.9314 Q770.255 61.0714 764.705 67.4314 Q759.156 73.7508 749.433 73.7508 Q739.671 73.7508 734.121 67.4314 Q728.612 61.0714 728.612 49.9314 Q728.612 38.7509 734.121 32.4315 Q739.671 26.1121 749.433 26.1121 Z" fill="#000000" fill-rule="nonzero" fill-opacity="1" /><path clip-path="url(#clip920)" d="M820.324 45.1919 L820.324 72.576 L812.871 72.576 L812.871 45.4349 Q812.871 38.994 810.359 35.7938 Q807.848 32.5936 802.824 32.5936 Q796.789 32.5936 793.305 36.4419 Q789.821 40.2903 789.821 46.9338 L789.821 72.576 L782.327 72.576 L782.327 27.2059 L789.821 27.2059 L789.821 34.2544 Q792.495 30.163 796.1 28.1376 Q799.746 26.1121 804.485 26.1121 Q812.304 26.1121 816.314 30.9732 Q820.324 35.7938 820.324 45.1919 Z" fill="#000000" fill-rule="nonzero" fill-opacity="1" /><path clip-path="url(#clip920)" d="M868.935 14.324 L868.935 27.2059 L884.288 27.2059 L884.288 32.9987 L868.935 32.9987 L868.935 57.6282 Q868.935 63.1779 870.434 64.7578 Q871.973 66.3376 876.632 66.3376 L884.288 66.3376 L884.288 72.576 L876.632 72.576 Q868.003 72.576 864.722 69.3758 Q861.441 66.1351 861.441 57.6282 L861.441 32.9987 L855.972 32.9987 L855.972 27.2059 L861.441 27.2059 L861.441 14.324 L868.935 14.324 Z" fill="#000000" fill-rule="nonzero" fill-opacity="1" /><path clip-path="url(#clip920)" d="M931.805 45.1919 L931.805 72.576 L924.352 72.576 L924.352 45.4349 Q924.352 38.994 921.84 35.7938 Q919.328 32.5936 914.305 32.5936 Q908.269 32.5936 904.786 36.4419 Q901.302 40.2903 901.302 46.9338 L901.302 72.576 L893.808 72.576 L893.808 9.54393 L901.302 9.54393 L901.302 34.2544 Q903.975 30.163 907.581 28.1376 Q911.227 26.1121 915.966 26.1121 Q923.784 26.1121 927.795 30.9732 Q931.805 35.7938 931.805 45.1919 Z" fill="#000000" fill-rule="nonzero" fill-opacity="1" /><path clip-path="url(#clip920)" d="M985.48 48.0275 L985.48 51.6733 L951.209 51.6733 Q951.695 59.3701 955.827 63.421 Q959.999 67.4314 967.413 67.4314 Q971.707 67.4314 975.717 66.3781 Q979.768 65.3249 983.738 63.2184 L983.738 70.267 Q979.727 71.9684 975.514 72.8596 Q971.302 73.7508 966.967 73.7508 Q956.111 73.7508 949.751 67.4314 Q943.431 61.1119 943.431 50.3365 Q943.431 39.1965 949.427 32.6746 Q955.462 26.1121 965.671 26.1121 Q974.826 26.1121 980.132 32.0264 Q985.48 37.9003 985.48 48.0275 M978.026 45.84 Q977.945 39.7232 974.583 36.0774 Q971.261 32.4315 965.752 32.4315 Q959.513 32.4315 955.746 35.9558 Q952.019 39.4801 951.452 45.8805 L978.026 45.84 Z" fill="#000000" fill-rule="nonzero" fill-opacity="1" /><path clip-path="url(#clip920)" d="M1032.59 43.6931 L1032.59 65.8515 L1045.72 65.8515 Q1052.32 65.8515 1055.48 63.1374 Q1058.68 60.3828 1058.68 54.752 Q1058.68 49.0808 1055.48 46.4072 Q1052.32 43.6931 1045.72 43.6931 L1032.59 43.6931 M1032.59 18.8205 L1032.59 37.0496 L1044.7 37.0496 Q1050.7 37.0496 1053.62 34.8216 Q1056.57 32.5531 1056.57 27.935 Q1056.57 23.3575 1053.62 21.089 Q1050.7 18.8205 1044.7 18.8205 L1032.59 18.8205 M1024.41 12.096 L1045.31 12.096 Q1054.67 12.096 1059.73 15.9849 Q1064.8 19.8737 1064.8 27.0438 Q1064.8 32.5936 1062.2 35.8748 Q1059.61 39.156 1054.59 39.9662 Q1060.62 41.2625 1063.95 45.3944 Q1067.31 49.4858 1067.31 55.6432 Q1067.31 63.745 1061.8 68.1605 Q1056.29 72.576 1046.12 72.576 L1024.41 72.576 L1024.41 12.096 Z" fill="#000000" fill-rule="nonzero" fill-opacity="1" /><path clip-path="url(#clip920)" d="M1098.58 32.4315 Q1092.59 32.4315 1089.1 37.1306 Q1085.62 41.7891 1085.62 49.9314 Q1085.62 58.0738 1089.06 62.7728 Q1092.55 67.4314 1098.58 67.4314 Q1104.54 67.4314 1108.02 62.7323 Q1111.5 58.0333 1111.5 49.9314 Q1111.5 41.8701 1108.02 37.1711 Q1104.54 32.4315 1098.58 32.4315 M1098.58 26.1121 Q1108.3 26.1121 1113.85 32.4315 Q1119.4 38.7509 1119.4 49.9314 Q1119.4 61.0714 1113.85 67.4314 Q1108.3 73.7508 1098.58 73.7508 Q1088.82 73.7508 1083.27 67.4314 Q1077.76 61.0714 1077.76 49.9314 Q1077.76 38.7509 1083.27 32.4315 Q1088.82 26.1121 1098.58 26.1121 Z" fill="#000000" fill-rule="nonzero" fill-opacity="1" /><path clip-path="url(#clip920)" d="M1160.68 28.5427 L1160.68 35.5912 Q1157.52 33.9709 1154.12 33.1607 Q1150.72 32.3505 1147.07 32.3505 Q1141.52 32.3505 1138.73 34.0519 Q1135.97 35.7533 1135.97 39.156 Q1135.97 41.7486 1137.96 43.2475 Q1139.94 44.7058 1145.94 46.0426 L1148.49 46.6097 Q1156.43 48.3111 1159.75 51.4303 Q1163.11 54.509 1163.11 60.0587 Q1163.11 66.3781 1158.09 70.0644 Q1153.11 73.7508 1144.36 73.7508 Q1140.71 73.7508 1136.74 73.0216 Q1132.81 72.3329 1128.44 70.9151 L1128.44 63.2184 Q1132.57 65.3654 1136.58 66.4591 Q1140.59 67.5124 1144.52 67.5124 Q1149.78 67.5124 1152.62 65.73 Q1155.46 63.9071 1155.46 60.6258 Q1155.46 57.5877 1153.39 55.9673 Q1151.36 54.3469 1144.44 52.8481 L1141.84 52.2405 Q1134.92 50.7821 1131.84 47.7845 Q1128.76 44.7463 1128.76 39.4801 Q1128.76 33.0797 1133.3 29.5959 Q1137.83 26.1121 1146.18 26.1121 Q1150.31 26.1121 1153.96 26.7198 Q1157.6 27.3274 1160.68 28.5427 Z" fill="#000000" fill-rule="nonzero" fill-opacity="1" /><path clip-path="url(#clip920)" d="M1182.35 14.324 L1182.35 27.2059 L1197.71 27.2059 L1197.71 32.9987 L1182.35 32.9987 L1182.35 57.6282 Q1182.35 63.1779 1183.85 64.7578 Q1185.39 66.3376 1190.05 66.3376 L1197.71 66.3376 L1197.71 72.576 L1190.05 72.576 Q1181.42 72.576 1178.14 69.3758 Q1174.86 66.1351 1174.86 57.6282 L1174.86 32.9987 L1169.39 32.9987 L1169.39 27.2059 L1174.86 27.2059 L1174.86 14.324 L1182.35 14.324 Z" fill="#000000" fill-rule="nonzero" fill-opacity="1" /><path clip-path="url(#clip920)" d="M1225.09 32.4315 Q1219.1 32.4315 1215.61 37.1306 Q1212.13 41.7891 1212.13 49.9314 Q1212.13 58.0738 1215.57 62.7728 Q1219.05 67.4314 1225.09 67.4314 Q1231.05 67.4314 1234.53 62.7323 Q1238.01 58.0333 1238.01 49.9314 Q1238.01 41.8701 1234.53 37.1711 Q1231.05 32.4315 1225.09 32.4315 M1225.09 26.1121 Q1234.81 26.1121 1240.36 32.4315 Q1245.91 38.7509 1245.91 49.9314 Q1245.91 61.0714 1240.36 67.4314 Q1234.81 73.7508 1225.09 73.7508 Q1215.33 73.7508 1209.78 67.4314 Q1204.27 61.0714 1204.27 49.9314 Q1204.27 38.7509 1209.78 32.4315 Q1215.33 26.1121 1225.09 26.1121 Z" fill="#000000" fill-rule="nonzero" fill-opacity="1" /><path clip-path="url(#clip920)" d="M1295.98 45.1919 L1295.98 72.576 L1288.53 72.576 L1288.53 45.4349 Q1288.53 38.994 1286.02 35.7938 Q1283.5 32.5936 1278.48 32.5936 Q1272.45 32.5936 1268.96 36.4419 Q1265.48 40.2903 1265.48 46.9338 L1265.48 72.576 L1257.98 72.576 L1257.98 27.2059 L1265.48 27.2059 L1265.48 34.2544 Q1268.15 30.163 1271.76 28.1376 Q1275.4 26.1121 1280.14 26.1121 Q1287.96 26.1121 1291.97 30.9732 Q1295.98 35.7938 1295.98 45.1919 Z" fill="#000000" fill-rule="nonzero" fill-opacity="1" /><path clip-path="url(#clip920)" d="M1345.73 18.8205 L1345.73 65.8515 L1355.61 65.8515 Q1368.13 65.8515 1373.92 60.1802 Q1379.75 54.509 1379.75 42.2752 Q1379.75 30.1225 1373.92 24.4918 Q1368.13 18.8205 1355.61 18.8205 L1345.73 18.8205 M1337.54 12.096 L1354.36 12.096 Q1371.94 12.096 1380.16 19.4281 Q1388.38 26.7198 1388.38 42.2752 Q1388.38 57.9117 1380.12 65.2439 Q1371.85 72.576 1354.36 72.576 L1337.54 72.576 L1337.54 12.096 Z" fill="#000000" fill-rule="nonzero" fill-opacity="1" /><path clip-path="url(#clip920)" d="M1421.72 49.7694 Q1412.69 49.7694 1409.2 51.8354 Q1405.72 53.9013 1405.72 58.8839 Q1405.72 62.8538 1408.31 65.2034 Q1410.95 67.5124 1415.44 67.5124 Q1421.64 67.5124 1425.37 63.1374 Q1429.13 58.7219 1429.13 51.4303 L1429.13 49.7694 L1421.72 49.7694 M1436.59 46.6907 L1436.59 72.576 L1429.13 72.576 L1429.13 65.6895 Q1426.58 69.8214 1422.77 71.8063 Q1418.97 73.7508 1413.46 73.7508 Q1406.49 73.7508 1402.36 69.8619 Q1398.27 65.9325 1398.27 59.3701 Q1398.27 51.7138 1403.37 47.825 Q1408.52 43.9361 1418.68 43.9361 L1429.13 43.9361 L1429.13 43.2069 Q1429.13 38.0623 1425.73 35.2672 Q1422.37 32.4315 1416.25 32.4315 Q1412.36 32.4315 1408.68 33.3632 Q1404.99 34.295 1401.59 36.1584 L1401.59 29.2718 Q1405.68 27.692 1409.53 26.9223 Q1413.38 26.1121 1417.02 26.1121 Q1426.87 26.1121 1431.73 31.2163 Q1436.59 36.3204 1436.59 46.6907 Z" fill="#000000" fill-rule="nonzero" fill-opacity="1" /><path clip-path="url(#clip920)" d="M1459.31 14.324 L1459.31 27.2059 L1474.67 27.2059 L1474.67 32.9987 L1459.31 32.9987 L1459.31 57.6282 Q1459.31 63.1779 1460.81 64.7578 Q1462.35 66.3376 1467.01 66.3376 L1474.67 66.3376 L1474.67 72.576 L1467.01 72.576 Q1458.38 72.576 1455.1 69.3758 Q1451.82 66.1351 1451.82 57.6282 L1451.82 32.9987 L1446.35 32.9987 L1446.35 27.2059 L1451.82 27.2059 L1451.82 14.324 L1459.31 14.324 Z" fill="#000000" fill-rule="nonzero" fill-opacity="1" /><path clip-path="url(#clip920)" d="M1505.09 49.7694 Q1496.06 49.7694 1492.57 51.8354 Q1489.09 53.9013 1489.09 58.8839 Q1489.09 62.8538 1491.68 65.2034 Q1494.31 67.5124 1498.81 67.5124 Q1505.01 67.5124 1508.73 63.1374 Q1512.5 58.7219 1512.5 51.4303 L1512.5 49.7694 L1505.09 49.7694 M1519.96 46.6907 L1519.96 72.576 L1512.5 72.576 L1512.5 65.6895 Q1509.95 69.8214 1506.14 71.8063 Q1502.33 73.7508 1496.83 73.7508 Q1489.86 73.7508 1485.73 69.8619 Q1481.63 65.9325 1481.63 59.3701 Q1481.63 51.7138 1486.74 47.825 Q1491.88 43.9361 1502.05 43.9361 L1512.5 43.9361 L1512.5 43.2069 Q1512.5 38.0623 1509.1 35.2672 Q1505.74 32.4315 1499.62 32.4315 Q1495.73 32.4315 1492.05 33.3632 Q1488.36 34.295 1484.96 36.1584 L1484.96 29.2718 Q1489.05 27.692 1492.9 26.9223 Q1496.74 26.1121 1500.39 26.1121 Q1510.23 26.1121 1515.09 31.2163 Q1519.96 36.3204 1519.96 46.6907 Z" fill="#000000" fill-rule="nonzero" fill-opacity="1" /><path clip-path="url(#clip920)" d="M1564.23 28.5427 L1564.23 35.5912 Q1561.07 33.9709 1557.67 33.1607 Q1554.27 32.3505 1550.62 32.3505 Q1545.07 32.3505 1542.28 34.0519 Q1539.52 35.7533 1539.52 39.156 Q1539.52 41.7486 1541.51 43.2475 Q1543.49 44.7058 1549.49 46.0426 L1552.04 46.6097 Q1559.98 48.3111 1563.3 51.4303 Q1566.66 54.509 1566.66 60.0587 Q1566.66 66.3781 1561.64 70.0644 Q1556.66 73.7508 1547.91 73.7508 Q1544.26 73.7508 1540.29 73.0216 Q1536.36 72.3329 1531.99 70.9151 L1531.99 63.2184 Q1536.12 65.3654 1540.13 66.4591 Q1544.14 67.5124 1548.07 67.5124 Q1553.34 67.5124 1556.17 65.73 Q1559.01 63.9071 1559.01 60.6258 Q1559.01 57.5877 1556.94 55.9673 Q1554.92 54.3469 1547.99 52.8481 L1545.4 52.2405 Q1538.47 50.7821 1535.39 47.7845 Q1532.31 44.7463 1532.31 39.4801 Q1532.31 33.0797 1536.85 29.5959 Q1541.39 26.1121 1549.73 26.1121 Q1553.86 26.1121 1557.51 26.7198 Q1561.15 27.3274 1564.23 28.5427 Z" fill="#000000" fill-rule="nonzero" fill-opacity="1" /><path clip-path="url(#clip920)" d="M1617.34 48.0275 L1617.34 51.6733 L1583.07 51.6733 Q1583.56 59.3701 1587.69 63.421 Q1591.86 67.4314 1599.27 67.4314 Q1603.57 67.4314 1607.58 66.3781 Q1611.63 65.3249 1615.6 63.2184 L1615.6 70.267 Q1611.59 71.9684 1607.37 72.8596 Q1603.16 73.7508 1598.83 73.7508 Q1587.97 73.7508 1581.61 67.4314 Q1575.29 61.1119 1575.29 50.3365 Q1575.29 39.1965 1581.29 32.6746 Q1587.32 26.1121 1597.53 26.1121 Q1606.69 26.1121 1611.99 32.0264 Q1617.34 37.9003 1617.34 48.0275 M1609.89 45.84 Q1609.81 39.7232 1606.44 36.0774 Q1603.12 32.4315 1597.61 32.4315 Q1591.37 32.4315 1587.61 35.9558 Q1583.88 39.4801 1583.31 45.8805 L1609.89 45.84 Z" fill="#000000" fill-rule="nonzero" fill-opacity="1" /><path clip-path="url(#clip920)" d="M1636.95 14.324 L1636.95 27.2059 L1652.3 27.2059 L1652.3 32.9987 L1636.95 32.9987 L1636.95 57.6282 Q1636.95 63.1779 1638.44 64.7578 Q1639.98 66.3376 1644.64 66.3376 L1652.3 66.3376 L1652.3 72.576 L1644.64 72.576 Q1636.01 72.576 1632.73 69.3758 Q1629.45 66.1351 1629.45 57.6282 L1629.45 32.9987 L1623.98 32.9987 L1623.98 27.2059 L1629.45 27.2059 L1629.45 14.324 L1636.95 14.324 Z" fill="#000000" fill-rule="nonzero" fill-opacity="1" /><path clip-path="url(#clip920)" d="M1664.01 62.2867 L1672.55 62.2867 L1672.55 69.2543 L1665.91 82.2172 L1660.68 82.2172 L1664.01 69.2543 L1664.01 62.2867 Z" fill="#000000" fill-rule="nonzero" fill-opacity="1" /><path clip-path="url(#clip920)" d="M1717.32 65.6895 L1730.68 65.6895 L1730.68 19.5497 L1716.14 22.4663 L1716.14 15.0127 L1730.6 12.096 L1738.79 12.096 L1738.79 65.6895 L1752.15 65.6895 L1752.15 72.576 L1717.32 72.576 L1717.32 65.6895 Z" fill="#000000" fill-rule="nonzero" fill-opacity="1" /><path clip-path="url(#clip920)" d="M1763.86 46.5287 L1785.7 46.5287 L1785.7 53.1722 L1763.86 53.1722 L1763.86 46.5287 Z" fill="#000000" fill-rule="nonzero" fill-opacity="1" /><path clip-path="url(#clip920)" d="M1803.11 43.6931 L1803.11 65.8515 L1816.24 65.8515 Q1822.84 65.8515 1826 63.1374 Q1829.2 60.3828 1829.2 54.752 Q1829.2 49.0808 1826 46.4072 Q1822.84 43.6931 1816.24 43.6931 L1803.11 43.6931 M1803.11 18.8205 L1803.11 37.0496 L1815.23 37.0496 Q1821.22 37.0496 1824.14 34.8216 Q1827.1 32.5531 1827.1 27.935 Q1827.1 23.3575 1824.14 21.089 Q1821.22 18.8205 1815.23 18.8205 L1803.11 18.8205 M1794.93 12.096 L1815.83 12.096 Q1825.19 12.096 1830.26 15.9849 Q1835.32 19.8737 1835.32 27.0438 Q1835.32 32.5936 1832.73 35.8748 Q1830.13 39.156 1825.11 39.9662 Q1831.15 41.2625 1834.47 45.3944 Q1837.83 49.4858 1837.83 55.6432 Q1837.83 63.745 1832.32 68.1605 Q1826.81 72.576 1816.64 72.576 L1794.93 72.576 L1794.93 12.096 Z" fill="#000000" fill-rule="nonzero" fill-opacity="1" /><path clip-path="url(#clip920)" d="M1851.52 27.2059 L1858.98 27.2059 L1858.98 72.576 L1851.52 72.576 L1851.52 27.2059 M1851.52 9.54393 L1858.98 9.54393 L1858.98 18.9825 L1851.52 18.9825 L1851.52 9.54393 Z" fill="#000000" fill-rule="nonzero" fill-opacity="1" /><path clip-path="url(#clip920)" d="M1881.94 14.324 L1881.94 27.2059 L1897.3 27.2059 L1897.3 32.9987 L1881.94 32.9987 L1881.94 57.6282 Q1881.94 63.1779 1883.44 64.7578 Q1884.98 66.3376 1889.64 66.3376 L1897.3 66.3376 L1897.3 72.576 L1889.64 72.576 Q1881.01 72.576 1877.73 69.3758 Q1874.45 66.1351 1874.45 57.6282 L1874.45 32.9987 L1868.98 32.9987 L1868.98 27.2059 L1874.45 27.2059 L1874.45 14.324 L1881.94 14.324 Z" fill="#000000" fill-rule="nonzero" fill-opacity="1" /><path clip-path="url(#clip920)" d="M1958.34 17.6457 Q1949.43 17.6457 1944.17 24.2892 Q1938.94 30.9327 1938.94 42.3968 Q1938.94 53.8203 1944.17 60.4638 Q1949.43 67.1073 1958.34 67.1073 Q1967.26 67.1073 1972.44 60.4638 Q1977.67 53.8203 1977.67 42.3968 Q1977.67 30.9327 1972.44 24.2892 Q1967.26 17.6457 1958.34 17.6457 M1969.81 71.4823 L1980.58 83.2704 L1970.7 83.2704 L1961.75 73.5887 Q1960.41 73.6697 1959.68 73.7103 Q1958.99 73.7508 1958.34 73.7508 Q1945.58 73.7508 1937.93 65.2439 Q1930.31 56.6965 1930.31 42.3968 Q1930.31 28.0566 1937.93 19.5497 Q1945.58 11.0023 1958.34 11.0023 Q1971.06 11.0023 1978.68 19.5497 Q1986.3 28.0566 1986.3 42.3968 Q1986.3 52.9291 1982.04 60.4233 Q1977.83 67.9175 1969.81 71.4823 Z" fill="#000000" fill-rule="nonzero" fill-opacity="1" /><path clip-path="url(#clip920)" d="M1998 54.671 L1998 27.2059 L2005.46 27.2059 L2005.46 54.3874 Q2005.46 60.8284 2007.97 64.0691 Q2010.48 67.2693 2015.5 67.2693 Q2021.54 67.2693 2025.02 63.421 Q2028.55 59.5726 2028.55 52.9291 L2028.55 27.2059 L2036 27.2059 L2036 72.576 L2028.55 72.576 L2028.55 65.6084 Q2025.83 69.7404 2022.23 71.7658 Q2018.66 73.7508 2013.92 73.7508 Q2006.11 73.7508 2002.05 68.8897 Q1998 64.0286 1998 54.671 M2016.76 26.1121 L2016.76 26.1121 Z" fill="#000000" fill-rule="nonzero" fill-opacity="1" /><path clip-path="url(#clip920)" d="M2071.97 49.7694 Q2062.94 49.7694 2059.46 51.8354 Q2055.97 53.9013 2055.97 58.8839 Q2055.97 62.8538 2058.56 65.2034 Q2061.2 67.5124 2065.69 67.5124 Q2071.89 67.5124 2075.62 63.1374 Q2079.39 58.7219 2079.39 51.4303 L2079.39 49.7694 L2071.97 49.7694 M2086.84 46.6907 L2086.84 72.576 L2079.39 72.576 L2079.39 65.6895 Q2076.83 69.8214 2073.03 71.8063 Q2069.22 73.7508 2063.71 73.7508 Q2056.74 73.7508 2052.61 69.8619 Q2048.52 65.9325 2048.52 59.3701 Q2048.52 51.7138 2053.62 47.825 Q2058.77 43.9361 2068.93 43.9361 L2079.39 43.9361 L2079.39 43.2069 Q2079.39 38.0623 2075.98 35.2672 Q2072.62 32.4315 2066.5 32.4315 Q2062.62 32.4315 2058.93 33.3632 Q2055.24 34.295 2051.84 36.1584 L2051.84 29.2718 Q2055.93 27.692 2059.78 26.9223 Q2063.63 26.1121 2067.27 26.1121 Q2077.12 26.1121 2081.98 31.2163 Q2086.84 36.3204 2086.84 46.6907 Z" fill="#000000" fill-rule="nonzero" fill-opacity="1" /><path clip-path="url(#clip920)" d="M2139.91 45.1919 L2139.91 72.576 L2132.45 72.576 L2132.45 45.4349 Q2132.45 38.994 2129.94 35.7938 Q2127.43 32.5936 2122.41 32.5936 Q2116.37 32.5936 2112.89 36.4419 Q2109.4 40.2903 2109.4 46.9338 L2109.4 72.576 L2101.91 72.576 L2101.91 27.2059 L2109.4 27.2059 L2109.4 34.2544 Q2112.08 30.163 2115.68 28.1376 Q2119.33 26.1121 2124.07 26.1121 Q2131.89 26.1121 2135.9 30.9732 Q2139.91 35.7938 2139.91 45.1919 Z" fill="#000000" fill-rule="nonzero" fill-opacity="1" /><path clip-path="url(#clip920)" d="M2162.15 14.324 L2162.15 27.2059 L2177.5 27.2059 L2177.5 32.9987 L2162.15 32.9987 L2162.15 57.6282 Q2162.15 63.1779 2163.64 64.7578 Q2165.18 66.3376 2169.84 66.3376 L2177.5 66.3376 L2177.5 72.576 L2169.84 72.576 Q2161.21 72.576 2157.93 69.3758 Q2154.65 66.1351 2154.65 57.6282 L2154.65 32.9987 L2149.18 32.9987 L2149.18 27.2059 L2154.65 27.2059 L2154.65 14.324 L2162.15 14.324 Z" fill="#000000" fill-rule="nonzero" fill-opacity="1" /><path clip-path="url(#clip920)" d="M2187.3 27.2059 L2194.76 27.2059 L2194.76 72.576 L2187.3 72.576 L2187.3 27.2059 M2187.3 9.54393 L2194.76 9.54393 L2194.76 18.9825 L2187.3 18.9825 L2187.3 9.54393 Z" fill="#000000" fill-rule="nonzero" fill-opacity="1" /><path clip-path="url(#clip920)" d="M2207.11 27.2059 L2242.52 27.2059 L2242.52 34.0114 L2214.48 66.6212 L2242.52 66.6212 L2242.52 72.576 L2206.1 72.576 L2206.1 65.7705 L2234.13 33.1607 L2207.11 33.1607 L2207.11 27.2059 Z" fill="#000000" fill-rule="nonzero" fill-opacity="1" /><path clip-path="url(#clip920)" d="M2274.52 49.7694 Q2265.48 49.7694 2262 51.8354 Q2258.52 53.9013 2258.52 58.8839 Q2258.52 62.8538 2261.11 65.2034 Q2263.74 67.5124 2268.24 67.5124 Q2274.44 67.5124 2278.16 63.1374 Q2281.93 58.7219 2281.93 51.4303 L2281.93 49.7694 L2274.52 49.7694 M2289.38 46.6907 L2289.38 72.576 L2281.93 72.576 L2281.93 65.6895 Q2279.38 69.8214 2275.57 71.8063 Q2271.76 73.7508 2266.25 73.7508 Q2259.29 73.7508 2255.15 69.8619 Q2251.06 65.9325 2251.06 59.3701 Q2251.06 51.7138 2256.17 47.825 Q2261.31 43.9361 2271.48 43.9361 L2281.93 43.9361 L2281.93 43.2069 Q2281.93 38.0623 2278.53 35.2672 Q2275.17 32.4315 2269.05 32.4315 Q2265.16 32.4315 2261.47 33.3632 Q2257.79 34.295 2254.38 36.1584 L2254.38 29.2718 Q2258.48 27.692 2262.32 26.9223 Q2266.17 26.1121 2269.82 26.1121 Q2279.66 26.1121 2284.52 31.2163 Q2289.38 36.3204 2289.38 46.6907 Z" fill="#000000" fill-rule="nonzero" fill-opacity="1" /><path clip-path="url(#clip920)" d="M2312.11 14.324 L2312.11 27.2059 L2327.46 27.2059 L2327.46 32.9987 L2312.11 32.9987 L2312.11 57.6282 Q2312.11 63.1779 2313.61 64.7578 Q2315.15 66.3376 2319.81 66.3376 L2327.46 66.3376 L2327.46 72.576 L2319.81 72.576 Q2311.18 72.576 2307.9 69.3758 Q2304.62 66.1351 2304.62 57.6282 L2304.62 32.9987 L2299.15 32.9987 L2299.15 27.2059 L2304.62 27.2059 L2304.62 14.324 L2312.11 14.324 Z" fill="#000000" fill-rule="nonzero" fill-opacity="1" /><path clip-path="url(#clip920)" d="M2337.27 27.2059 L2344.72 27.2059 L2344.72 72.576 L2337.27 72.576 L2337.27 27.2059 M2337.27 9.54393 L2344.72 9.54393 L2344.72 18.9825 L2337.27 18.9825 L2337.27 9.54393 Z" fill="#000000" fill-rule="nonzero" fill-opacity="1" /><path clip-path="url(#clip920)" d="M2377.9 32.4315 Q2371.9 32.4315 2368.42 37.1306 Q2364.93 41.7891 2364.93 49.9314 Q2364.93 58.0738 2368.38 62.7728 Q2371.86 67.4314 2377.9 67.4314 Q2383.85 67.4314 2387.34 62.7323 Q2390.82 58.0333 2390.82 49.9314 Q2390.82 41.8701 2387.34 37.1711 Q2383.85 32.4315 2377.9 32.4315 M2377.9 26.1121 Q2387.62 26.1121 2393.17 32.4315 Q2398.72 38.7509 2398.72 49.9314 Q2398.72 61.0714 2393.17 67.4314 Q2387.62 73.7508 2377.9 73.7508 Q2368.13 73.7508 2362.58 67.4314 Q2357.08 61.0714 2357.08 49.9314 Q2357.08 38.7509 2362.58 32.4315 Q2368.13 26.1121 2377.9 26.1121 Z" fill="#000000" fill-rule="nonzero" fill-opacity="1" /><path clip-path="url(#clip920)" d="M2448.79 45.1919 L2448.79 72.576 L2441.33 72.576 L2441.33 45.4349 Q2441.33 38.994 2438.82 35.7938 Q2436.31 32.5936 2431.29 32.5936 Q2425.25 32.5936 2421.77 36.4419 Q2418.28 40.2903 2418.28 46.9338 L2418.28 72.576 L2410.79 72.576 L2410.79 27.2059 L2418.28 27.2059 L2418.28 34.2544 Q2420.96 30.163 2424.56 28.1376 Q2428.21 26.1121 2432.95 26.1121 Q2440.77 26.1121 2444.78 30.9732 Q2448.79 35.7938 2448.79 45.1919 Z" fill="#000000" fill-rule="nonzero" fill-opacity="1" /><polyline clip-path="url(#clip922)" style="stroke:#009af9; stroke-linecap:round; stroke-linejoin:round; stroke-width:4; stroke-opacity:1; fill:none" points="296.712,1618.36 694.131,1709.33 1091.55,1724.72 1488.97,1747.2 1886.38,1765.61 2283.8,1725.83 2681.22,1733.64 "/>
<polyline clip-path="url(#clip922)" style="stroke:#e26f46; stroke-linecap:round; stroke-linejoin:round; stroke-width:4; stroke-opacity:1; fill:none" points="296.712,792.599 694.131,524.329 1091.55,923.464 1488.97,1052.28 1886.38,1148.3 2283.8,1271.29 2681.22,1318.57 "/>
<polyline clip-path="url(#clip922)" style="stroke:#3da44d; stroke-linecap:round; stroke-linejoin:round; stroke-width:4; stroke-opacity:1; fill:none" points="296.712,175.496 694.131,486.041 1091.55,961.241 1488.97,1345.37 1886.38,1630.22 2283.8,1662.65 2681.22,1747.2 "/>
<polyline clip-path="url(#clip922)" style="stroke:#c271d2; stroke-linecap:round; stroke-linejoin:round; stroke-width:4; stroke-opacity:1; fill:none" points="296.712,1177.3 694.131,1177.3 1091.55,1177.3 1488.97,1177.3 1886.38,1177.3 2283.8,1177.3 2681.22,1177.3 "/>
<path clip-path="url(#clip920)" d="M2077.71 443.176 L2668.5 443.176 L2668.5 183.976 L2077.71 183.976  Z" fill="#ffffff" fill-rule="evenodd" fill-opacity="1"/>
<polyline clip-path="url(#clip920)" style="stroke:#000000; stroke-linecap:round; stroke-linejoin:round; stroke-width:4; stroke-opacity:1; fill:none" points="2077.71,443.176 2668.5,443.176 2668.5,183.976 2077.71,183.976 2077.71,443.176 "/>
<polyline clip-path="url(#clip920)" style="stroke:#009af9; stroke-linecap:round; stroke-linejoin:round; stroke-width:4; stroke-opacity:1; fill:none" points="2105.8,235.816 2274.3,235.816 "/>
<path clip-path="url(#clip920)" d="M2324.63 219.671 L2324.63 224.231 Q2321.97 222.958 2319.61 222.333 Q2317.25 221.708 2315.05 221.708 Q2311.23 221.708 2309.15 223.189 Q2307.09 224.671 2307.09 227.402 Q2307.09 229.694 2308.45 230.874 Q2309.84 232.032 2313.68 232.749 L2316.51 233.328 Q2321.74 234.323 2324.22 236.846 Q2326.72 239.346 2326.72 243.559 Q2326.72 248.582 2323.34 251.175 Q2319.98 253.768 2313.48 253.768 Q2311.02 253.768 2308.24 253.212 Q2305.49 252.656 2302.53 251.569 L2302.53 246.754 Q2305.37 248.351 2308.11 249.161 Q2310.84 249.971 2313.48 249.971 Q2317.48 249.971 2319.66 248.397 Q2321.83 246.823 2321.83 243.907 Q2321.83 241.36 2320.26 239.925 Q2318.71 238.49 2315.14 237.772 L2312.3 237.217 Q2307.06 236.175 2304.73 233.953 Q2302.39 231.731 2302.39 227.772 Q2302.39 223.189 2305.61 220.55 Q2308.85 217.911 2314.52 217.911 Q2316.95 217.911 2319.47 218.351 Q2321.99 218.791 2324.63 219.671 Z" fill="#000000" fill-rule="nonzero" fill-opacity="1" /><path clip-path="url(#clip920)" d="M2350.4 236.893 Q2351.9 237.402 2353.31 239.069 Q2354.75 240.735 2356.18 243.652 L2360.93 253.096 L2355.91 253.096 L2351.49 244.231 Q2349.77 240.758 2348.15 239.624 Q2346.55 238.49 2343.78 238.49 L2338.68 238.49 L2338.68 253.096 L2334.01 253.096 L2334.01 218.536 L2344.56 218.536 Q2350.49 218.536 2353.41 221.013 Q2356.32 223.49 2356.32 228.49 Q2356.32 231.754 2354.8 233.907 Q2353.29 236.059 2350.4 236.893 M2338.68 222.379 L2338.68 234.647 L2344.56 234.647 Q2347.94 234.647 2349.66 233.096 Q2351.39 231.522 2351.39 228.49 Q2351.39 225.458 2349.66 223.93 Q2347.94 222.379 2344.56 222.379 L2338.68 222.379 Z" fill="#000000" fill-rule="nonzero" fill-opacity="1" /><path clip-path="url(#clip920)" d="M2366.95 218.536 L2386.81 218.536 L2386.81 222.471 L2371.62 222.471 L2371.62 232.657 L2385.33 232.657 L2385.33 236.592 L2371.62 236.592 L2371.62 253.096 L2366.95 253.096 L2366.95 218.536 Z" fill="#000000" fill-rule="nonzero" fill-opacity="1" /><path clip-path="url(#clip920)" d="M2394.22 218.536 L2416.07 218.536 L2416.07 222.471 L2398.89 222.471 L2398.89 232.703 L2415.35 232.703 L2415.35 236.638 L2398.89 236.638 L2398.89 249.161 L2416.49 249.161 L2416.49 253.096 L2394.22 253.096 L2394.22 218.536 Z" fill="#000000" fill-rule="nonzero" fill-opacity="1" /><polyline clip-path="url(#clip920)" style="stroke:#e26f46; stroke-linecap:round; stroke-linejoin:round; stroke-width:4; stroke-opacity:1; fill:none" points="2105.8,287.656 2274.3,287.656 "/>
<path clip-path="url(#clip920)" d="M2302.39 270.376 L2309.36 270.376 L2318.18 293.895 L2327.04 270.376 L2334.01 270.376 L2334.01 304.936 L2329.45 304.936 L2329.45 274.589 L2320.54 298.293 L2315.84 298.293 L2306.93 274.589 L2306.93 304.936 L2302.39 304.936 L2302.39 270.376 Z" fill="#000000" fill-rule="nonzero" fill-opacity="1" /><path clip-path="url(#clip920)" d="M2364.01 271.511 L2364.01 276.071 Q2361.35 274.798 2358.99 274.173 Q2356.62 273.548 2354.43 273.548 Q2350.61 273.548 2348.52 275.029 Q2346.46 276.511 2346.46 279.242 Q2346.46 281.534 2347.83 282.714 Q2349.22 283.872 2353.06 284.589 L2355.88 285.168 Q2361.12 286.163 2363.59 288.686 Q2366.09 291.186 2366.09 295.399 Q2366.09 300.422 2362.71 303.015 Q2359.36 305.608 2352.85 305.608 Q2350.4 305.608 2347.62 305.052 Q2344.87 304.496 2341.9 303.409 L2341.9 298.594 Q2344.75 300.191 2347.48 301.001 Q2350.21 301.811 2352.85 301.811 Q2356.86 301.811 2359.03 300.237 Q2361.21 298.663 2361.21 295.747 Q2361.21 293.2 2359.63 291.765 Q2358.08 290.33 2354.52 289.612 L2351.67 289.057 Q2346.44 288.015 2344.1 285.793 Q2341.76 283.571 2341.76 279.612 Q2341.76 275.029 2344.98 272.39 Q2348.22 269.751 2353.89 269.751 Q2356.32 269.751 2358.85 270.191 Q2361.37 270.631 2364.01 271.511 Z" fill="#000000" fill-rule="nonzero" fill-opacity="1" /><path clip-path="url(#clip920)" d="M2387.41 273.548 Q2382.32 273.548 2379.31 277.344 Q2376.32 281.14 2376.32 287.691 Q2376.32 294.219 2379.31 298.015 Q2382.32 301.811 2387.41 301.811 Q2392.5 301.811 2395.47 298.015 Q2398.45 294.219 2398.45 287.691 Q2398.45 281.14 2395.47 277.344 Q2392.5 273.548 2387.41 273.548 M2393.96 304.311 L2400.12 311.047 L2394.47 311.047 L2389.36 305.515 Q2388.59 305.561 2388.18 305.584 Q2387.78 305.608 2387.41 305.608 Q2380.12 305.608 2375.74 300.746 Q2371.39 295.862 2371.39 287.691 Q2371.39 279.497 2375.74 274.636 Q2380.12 269.751 2387.41 269.751 Q2394.68 269.751 2399.03 274.636 Q2403.38 279.497 2403.38 287.691 Q2403.38 293.709 2400.95 297.992 Q2398.55 302.274 2393.96 304.311 Z" fill="#000000" fill-rule="nonzero" fill-opacity="1" /><polyline clip-path="url(#clip920)" style="stroke:#3da44d; stroke-linecap:round; stroke-linejoin:round; stroke-width:4; stroke-opacity:1; fill:none" points="2105.8,339.496 2274.3,339.496 "/>
<path clip-path="url(#clip920)" d="M2324.63 323.351 L2324.63 327.911 Q2321.97 326.638 2319.61 326.013 Q2317.25 325.388 2315.05 325.388 Q2311.23 325.388 2309.15 326.869 Q2307.09 328.351 2307.09 331.082 Q2307.09 333.374 2308.45 334.554 Q2309.84 335.712 2313.68 336.429 L2316.51 337.008 Q2321.74 338.003 2324.22 340.526 Q2326.72 343.026 2326.72 347.239 Q2326.72 352.262 2323.34 354.855 Q2319.98 357.448 2313.48 357.448 Q2311.02 357.448 2308.24 356.892 Q2305.49 356.336 2302.53 355.249 L2302.53 350.434 Q2305.37 352.031 2308.11 352.841 Q2310.84 353.651 2313.48 353.651 Q2317.48 353.651 2319.66 352.077 Q2321.83 350.503 2321.83 347.587 Q2321.83 345.04 2320.26 343.605 Q2318.71 342.17 2315.14 341.452 L2312.3 340.897 Q2307.06 339.855 2304.73 337.633 Q2302.39 335.411 2302.39 331.452 Q2302.39 326.869 2305.61 324.23 Q2308.85 321.591 2314.52 321.591 Q2316.95 321.591 2319.47 322.031 Q2321.99 322.471 2324.63 323.351 Z" fill="#000000" fill-rule="nonzero" fill-opacity="1" /><path clip-path="url(#clip920)" d="M2350.4 340.573 Q2351.9 341.082 2353.31 342.749 Q2354.75 344.415 2356.18 347.332 L2360.93 356.776 L2355.91 356.776 L2351.49 347.911 Q2349.77 344.438 2348.15 343.304 Q2346.55 342.17 2343.78 342.17 L2338.68 342.17 L2338.68 356.776 L2334.01 356.776 L2334.01 322.216 L2344.56 322.216 Q2350.49 322.216 2353.41 324.693 Q2356.32 327.17 2356.32 332.17 Q2356.32 335.434 2354.8 337.587 Q2353.29 339.739 2350.4 340.573 M2338.68 326.059 L2338.68 338.327 L2344.56 338.327 Q2347.94 338.327 2349.66 336.776 Q2351.39 335.202 2351.39 332.17 Q2351.39 329.138 2349.66 327.61 Q2347.94 326.059 2344.56 326.059 L2338.68 326.059 Z" fill="#000000" fill-rule="nonzero" fill-opacity="1" /><path clip-path="url(#clip920)" d="M2366.95 322.216 L2386.81 322.216 L2386.81 326.151 L2371.62 326.151 L2371.62 336.337 L2385.33 336.337 L2385.33 340.272 L2371.62 340.272 L2371.62 356.776 L2366.95 356.776 L2366.95 322.216 Z" fill="#000000" fill-rule="nonzero" fill-opacity="1" /><path clip-path="url(#clip920)" d="M2394.22 322.216 L2416.07 322.216 L2416.07 326.151 L2398.89 326.151 L2398.89 336.383 L2415.35 336.383 L2415.35 340.318 L2398.89 340.318 L2398.89 352.841 L2416.49 352.841 L2416.49 356.776 L2394.22 356.776 L2394.22 322.216 Z" fill="#000000" fill-rule="nonzero" fill-opacity="1" /><path clip-path="url(#clip920)" d="M2436.9 341.892 L2449.38 341.892 L2449.38 345.688 L2436.9 345.688 L2436.9 341.892 Z" fill="#000000" fill-rule="nonzero" fill-opacity="1" /><path clip-path="url(#clip920)" d="M2475.49 355.179 L2475.49 366.637 L2471.21 366.637 L2471.21 331.013 Q2471.21 320.457 2481.07 320.457 Q2491.11 320.457 2491.11 329.369 Q2491.11 335.712 2487.13 338.026 Q2493.61 340.11 2493.61 346.29 Q2493.61 357.262 2482.46 357.262 Q2477.55 357.262 2475.49 355.179 M2475.49 349.624 Q2478.06 353.628 2482.62 353.628 Q2489.29 353.628 2489.29 346.36 Q2489.29 339.832 2478.54 340.341 L2478.54 336.406 Q2486.95 336.406 2486.95 328.999 Q2486.95 323.929 2481.53 323.929 Q2475.49 323.929 2475.49 331.151 L2475.49 349.624 Z" fill="#000000" fill-rule="nonzero" fill-opacity="1" /><path clip-path="url(#clip920)" d="M2515.7 325.388 Q2510.6 325.388 2507.6 329.184 Q2504.61 332.98 2504.61 339.531 Q2504.61 346.059 2507.6 349.855 Q2510.6 353.651 2515.7 353.651 Q2520.79 353.651 2523.75 349.855 Q2526.74 346.059 2526.74 339.531 Q2526.74 332.98 2523.75 329.184 Q2520.79 325.388 2515.7 325.388 M2522.25 356.151 L2528.41 362.887 L2522.76 362.887 L2517.64 357.355 Q2516.88 357.401 2516.46 357.424 Q2516.07 357.448 2515.7 357.448 Q2508.41 357.448 2504.03 352.586 Q2499.68 347.702 2499.68 339.531 Q2499.68 331.337 2504.03 326.476 Q2508.41 321.591 2515.7 321.591 Q2522.97 321.591 2527.32 326.476 Q2531.67 331.337 2531.67 339.531 Q2531.67 345.549 2529.24 349.832 Q2526.83 354.114 2522.25 356.151 Z" fill="#000000" fill-rule="nonzero" fill-opacity="1" /><polyline clip-path="url(#clip920)" style="stroke:#c271d2; stroke-linecap:round; stroke-linejoin:round; stroke-width:4; stroke-opacity:1; fill:none" points="2105.8,391.336 2274.3,391.336 "/>
<path clip-path="url(#clip920)" d="M2302.39 374.056 L2307.06 374.056 L2307.06 404.681 L2323.89 404.681 L2323.89 408.616 L2302.39 408.616 L2302.39 374.056 Z" fill="#000000" fill-rule="nonzero" fill-opacity="1" /><path clip-path="url(#clip920)" d="M2328.62 382.691 L2332.87 382.691 L2332.87 408.616 L2328.62 408.616 L2328.62 382.691 M2328.62 372.598 L2332.87 372.598 L2332.87 377.991 L2328.62 377.991 L2328.62 372.598 Z" fill="#000000" fill-rule="nonzero" fill-opacity="1" /><path clip-path="url(#clip920)" d="M2363.34 392.968 L2363.34 408.616 L2359.08 408.616 L2359.08 393.107 Q2359.08 389.427 2357.64 387.598 Q2356.21 385.769 2353.34 385.769 Q2349.89 385.769 2347.9 387.968 Q2345.91 390.167 2345.91 393.964 L2345.91 408.616 L2341.62 408.616 L2341.62 382.691 L2345.91 382.691 L2345.91 386.718 Q2347.43 384.38 2349.49 383.223 Q2351.58 382.066 2354.29 382.066 Q2358.75 382.066 2361.05 384.843 Q2363.34 387.598 2363.34 392.968 Z" fill="#000000" fill-rule="nonzero" fill-opacity="1" /><path clip-path="url(#clip920)" d="M2372.43 402.737 L2377.32 402.737 L2377.32 408.616 L2372.43 408.616 L2372.43 402.737 Z" fill="#000000" fill-rule="nonzero" fill-opacity="1" /><path clip-path="url(#clip920)" d="M2416.99 386.672 Q2416.28 386.255 2415.42 386.07 Q2414.59 385.862 2413.57 385.862 Q2409.96 385.862 2408.01 388.223 Q2406.09 390.561 2406.09 394.959 L2406.09 408.616 L2401.81 408.616 L2401.81 382.691 L2406.09 382.691 L2406.09 386.718 Q2407.43 384.357 2409.59 383.223 Q2411.74 382.066 2414.82 382.066 Q2415.26 382.066 2415.79 382.135 Q2416.32 382.181 2416.97 382.297 L2416.99 386.672 Z" fill="#000000" fill-rule="nonzero" fill-opacity="1" /><path clip-path="url(#clip920)" d="M2442.6 394.589 L2442.6 396.672 L2423.01 396.672 Q2423.29 401.07 2425.65 403.385 Q2428.04 405.676 2432.27 405.676 Q2434.73 405.676 2437.02 405.075 Q2439.33 404.473 2441.6 403.269 L2441.6 407.297 Q2439.31 408.269 2436.9 408.778 Q2434.49 409.288 2432.02 409.288 Q2425.81 409.288 2422.18 405.676 Q2418.57 402.065 2418.57 395.908 Q2418.57 389.542 2421.99 385.815 Q2425.44 382.066 2431.28 382.066 Q2436.51 382.066 2439.54 385.445 Q2442.6 388.802 2442.6 394.589 M2438.34 393.339 Q2438.29 389.843 2436.37 387.76 Q2434.47 385.677 2431.32 385.677 Q2427.76 385.677 2425.61 387.69 Q2423.48 389.704 2423.15 393.362 L2438.34 393.339 Z" fill="#000000" fill-rule="nonzero" fill-opacity="1" /><path clip-path="url(#clip920)" d="M2466.65 395.352 Q2466.65 390.723 2464.73 388.177 Q2462.83 385.63 2459.38 385.63 Q2455.95 385.63 2454.03 388.177 Q2452.13 390.723 2452.13 395.352 Q2452.13 399.959 2454.03 402.505 Q2455.95 405.051 2459.38 405.051 Q2462.83 405.051 2464.73 402.505 Q2466.65 399.959 2466.65 395.352 M2470.91 405.399 Q2470.91 412.019 2467.97 415.237 Q2465.03 418.477 2458.96 418.477 Q2456.72 418.477 2454.73 418.13 Q2452.73 417.806 2450.86 417.112 L2450.86 412.968 Q2452.73 413.987 2454.56 414.473 Q2456.39 414.959 2458.29 414.959 Q2462.48 414.959 2464.56 412.76 Q2466.65 410.584 2466.65 406.163 L2466.65 404.056 Q2465.33 406.348 2463.27 407.482 Q2461.21 408.616 2458.34 408.616 Q2453.57 408.616 2450.65 404.982 Q2447.73 401.348 2447.73 395.352 Q2447.73 389.334 2450.65 385.7 Q2453.57 382.066 2458.34 382.066 Q2461.21 382.066 2463.27 383.2 Q2465.33 384.334 2466.65 386.626 L2466.65 382.691 L2470.91 382.691 L2470.91 405.399 Z" fill="#000000" fill-rule="nonzero" fill-opacity="1" /><path clip-path="url(#clip920)" d="M2494.7 386.672 Q2493.98 386.255 2493.13 386.07 Q2492.29 385.862 2491.28 385.862 Q2487.67 385.862 2485.72 388.223 Q2483.8 390.561 2483.8 394.959 L2483.8 408.616 L2479.52 408.616 L2479.52 382.691 L2483.8 382.691 L2483.8 386.718 Q2485.14 384.357 2487.29 383.223 Q2489.45 382.066 2492.53 382.066 Q2492.97 382.066 2493.5 382.135 Q2494.03 382.181 2494.68 382.297 L2494.7 386.672 Z" fill="#000000" fill-rule="nonzero" fill-opacity="1" /><path clip-path="url(#clip920)" d="M2520.3 394.589 L2520.3 396.672 L2500.72 396.672 Q2501 401.07 2503.36 403.385 Q2505.74 405.676 2509.98 405.676 Q2512.43 405.676 2514.73 405.075 Q2517.04 404.473 2519.31 403.269 L2519.31 407.297 Q2517.02 408.269 2514.61 408.778 Q2512.2 409.288 2509.73 409.288 Q2503.52 409.288 2499.89 405.676 Q2496.28 402.065 2496.28 395.908 Q2496.28 389.542 2499.7 385.815 Q2503.15 382.066 2508.98 382.066 Q2514.22 382.066 2517.25 385.445 Q2520.3 388.802 2520.3 394.589 M2516.04 393.339 Q2516 389.843 2514.08 387.76 Q2512.18 385.677 2509.03 385.677 Q2505.47 385.677 2503.31 387.69 Q2501.18 389.704 2500.86 393.362 L2516.04 393.339 Z" fill="#000000" fill-rule="nonzero" fill-opacity="1" /><path clip-path="url(#clip920)" d="M2543.82 383.454 L2543.82 387.482 Q2542.02 386.556 2540.07 386.093 Q2538.13 385.63 2536.04 385.63 Q2532.87 385.63 2531.28 386.603 Q2529.7 387.575 2529.7 389.519 Q2529.7 391.001 2530.84 391.857 Q2531.97 392.69 2535.4 393.454 L2536.85 393.778 Q2541.39 394.751 2543.29 396.533 Q2545.21 398.292 2545.21 401.464 Q2545.21 405.075 2542.34 407.181 Q2539.49 409.288 2534.49 409.288 Q2532.41 409.288 2530.14 408.871 Q2527.9 408.477 2525.4 407.667 L2525.4 403.269 Q2527.76 404.496 2530.05 405.121 Q2532.34 405.723 2534.59 405.723 Q2537.6 405.723 2539.22 404.704 Q2540.84 403.663 2540.84 401.788 Q2540.84 400.052 2539.66 399.126 Q2538.5 398.2 2534.54 397.343 L2533.06 396.996 Q2529.1 396.163 2527.34 394.45 Q2525.58 392.714 2525.58 389.704 Q2525.58 386.047 2528.17 384.056 Q2530.77 382.066 2535.54 382.066 Q2537.9 382.066 2539.98 382.413 Q2542.06 382.76 2543.82 383.454 Z" fill="#000000" fill-rule="nonzero" fill-opacity="1" /><path clip-path="url(#clip920)" d="M2568.52 383.454 L2568.52 387.482 Q2566.72 386.556 2564.77 386.093 Q2562.83 385.63 2560.74 385.63 Q2557.57 385.63 2555.98 386.603 Q2554.4 387.575 2554.4 389.519 Q2554.4 391.001 2555.54 391.857 Q2556.67 392.69 2560.1 393.454 L2561.55 393.778 Q2566.09 394.751 2567.99 396.533 Q2569.91 398.292 2569.91 401.464 Q2569.91 405.075 2567.04 407.181 Q2564.19 409.288 2559.19 409.288 Q2557.11 409.288 2554.84 408.871 Q2552.6 408.477 2550.1 407.667 L2550.1 403.269 Q2552.46 404.496 2554.75 405.121 Q2557.04 405.723 2559.29 405.723 Q2562.29 405.723 2563.91 404.704 Q2565.54 403.663 2565.54 401.788 Q2565.54 400.052 2564.35 399.126 Q2563.2 398.2 2559.24 397.343 L2557.76 396.996 Q2553.8 396.163 2552.04 394.45 Q2550.28 392.714 2550.28 389.704 Q2550.28 386.047 2552.87 384.056 Q2555.47 382.066 2560.23 382.066 Q2562.6 382.066 2564.68 382.413 Q2566.76 382.76 2568.52 383.454 Z" fill="#000000" fill-rule="nonzero" fill-opacity="1" /><path clip-path="url(#clip920)" d="M2576.69 382.691 L2580.95 382.691 L2580.95 408.616 L2576.69 408.616 L2576.69 382.691 M2576.69 372.598 L2580.95 372.598 L2580.95 377.991 L2576.69 377.991 L2576.69 372.598 Z" fill="#000000" fill-rule="nonzero" fill-opacity="1" /><path clip-path="url(#clip920)" d="M2599.91 385.677 Q2596.48 385.677 2594.49 388.362 Q2592.5 391.024 2592.5 395.677 Q2592.5 400.329 2594.47 403.014 Q2596.46 405.676 2599.91 405.676 Q2603.31 405.676 2605.3 402.991 Q2607.29 400.306 2607.29 395.677 Q2607.29 391.07 2605.3 388.385 Q2603.31 385.677 2599.91 385.677 M2599.91 382.066 Q2605.47 382.066 2608.64 385.677 Q2611.81 389.288 2611.81 395.677 Q2611.81 402.042 2608.64 405.676 Q2605.47 409.288 2599.91 409.288 Q2594.33 409.288 2591.16 405.676 Q2588.01 402.042 2588.01 395.677 Q2588.01 389.288 2591.16 385.677 Q2594.33 382.066 2599.91 382.066 Z" fill="#000000" fill-rule="nonzero" fill-opacity="1" /><path clip-path="url(#clip920)" d="M2640.42 392.968 L2640.42 408.616 L2636.16 408.616 L2636.16 393.107 Q2636.16 389.427 2634.72 387.598 Q2633.29 385.769 2630.42 385.769 Q2626.97 385.769 2624.98 387.968 Q2622.99 390.167 2622.99 393.964 L2622.99 408.616 L2618.71 408.616 L2618.71 382.691 L2622.99 382.691 L2622.99 386.718 Q2624.52 384.38 2626.58 383.223 Q2628.66 382.066 2631.37 382.066 Q2635.84 382.066 2638.13 384.843 Q2640.42 387.598 2640.42 392.968 Z" fill="#000000" fill-rule="nonzero" fill-opacity="1" /></svg>
